<svg xmlns="http://www.w3.org/2000/svg" width="44" height="44" viewBox="0 0 44 44">
  <g id="aiml" transform="translate(-14.027 -28.014)">
    <rect id="holder" width="44" height="44" transform="translate(14.027 28.014)" fill="#ff7d25" opacity="0"/>
    <g id="AI-ML_Developers" data-name="AI-ML Developers" transform="translate(15.498 29.485)">
      <path id="Path_28581" data-name="Path 28581" d="M0,0H41.191V41.191H0Z" fill="none"/>
      <g id="Group_229207" data-name="Group 229207" transform="translate(1.033 2.065)">
        <path id="Path_28514" data-name="Path 28514" d="M50.345,110.558v-2.553c.13-.02.211.078.311.131a.437.437,0,0,0,.695-.319,2.514,2.514,0,0,0,.027-.54q0-8.429,0-16.858a4.36,4.36,0,0,1,.025-.695.969.969,0,0,1,.938-.864c.167-.013.334-.008.5-.008h34.5c.129,0,.257,0,.385,0a.991.991,0,0,1,1.061,1.03c.01.154.007.309.007.464q0,10.671,0,21.343c0,.909-.014.923-.928.923H52.287c-.889,0-.908-.021-.91-.9,0-.283.017-.568-.011-.85-.049-.487-.345-.634-.774-.393C50.514,110.512,50.445,110.576,50.345,110.558Z" transform="translate(-50.345 -87.787)" fill="#fff"/>
        <path id="Path_28515" data-name="Path 28515" d="M50.345,86.809a5.835,5.835,0,0,1,.343-.721,2.068,2.068,0,0,1,1.8-.85q8.811.011,17.622,0H87.69a1.968,1.968,0,0,1,2.1,1.543,2.515,2.515,0,0,1,.042.573q0,12.836,0,25.673a1.961,1.961,0,0,1-2.08,2.107c-1.709.01-3.419,0-5.128,0h-.077c-.44-.018-.669-.212-.678-.572s.249-.6.684-.608c.656-.007,1.311,0,1.967,0,1.08,0,2.159,0,3.239,0a.819.819,0,0,0,.916-.894c.009-.591-.009-1.182.007-1.773.006-.227-.073-.276-.283-.271-.565.013-1.131.016-1.7,0-.233-.007-.279.08-.267.287.016.282.011.565,0,.848a.6.6,0,0,1-.565.613.587.587,0,0,1-.592-.621c0-.026,0-.051,0-.077-.027-.341.152-.808-.076-.989s-.663-.055-1.008-.055q-16.118,0-32.236-.009c-.354,0-.5.054-.464.446.041.5.008,1,.01,1.5,0,.707.294.994,1.01.994q13.457,0,26.914,0a1.362,1.362,0,0,1,.5.037.558.558,0,0,1,.413.581.542.542,0,0,1-.5.544,2.617,2.617,0,0,1-.384.018c-1.054,0-2.108.005-3.162,0-.227,0-.34.024-.338.306q.022,2.544,0,5.088c0,.25.08.294.306.292.951-.012,1.9-.005,2.854,0a.6.6,0,0,1,.654.48.545.545,0,0,1-.28.618.916.916,0,0,1-.526.076q-2.95,0-5.9,0h-11.8c-.579,0-.87-.193-.872-.578s.3-.6.864-.6c.874,0,1.748-.015,2.622.008.3.008.353-.089.351-.366-.013-1.645-.017-3.29,0-4.934,0-.335-.1-.393-.41-.392-3.689.011-7.378.007-11.067.007a2.1,2.1,0,0,1-2.406-1.577v-5.629c.183-.275.411-.476.766-.351s.407.416.395.751c-.016.423,0,.848-.008,1.272-.006.192.037.294.25.259a1.2,1.2,0,0,1,.193,0q18.14,0,36.28.011c.4,0,.465-.113.465-.481q-.017-10.927-.009-21.854c0-.878-.242-1.122-1.115-1.122H52.593c-.845,0-1.091.249-1.091,1.106q0,8.73,0,17.46a.832.832,0,0,1-.111.553c-.276.359-.7.3-1.046-.146Z" transform="translate(-50.345 -85.238)" fill="#66005f"/>
        <path id="Path_28516" data-name="Path 28516" d="M67.73,98.761c2.471,1.264,4.887,2.5,7.3,3.737a.479.479,0,0,0,.5.033c2.435-1.255,4.875-2.5,7.36-3.77-1-.537-1.962-1.057-2.926-1.58-.14-.076-.215.022-.3.092-.387.318-.768.645-1.161.956a.59.59,0,1,1-.738-.909c.309-.267.628-.523.968-.805-1.057-.566-2.082-1.118-3.11-1.665a.758.758,0,0,0-.765.066c-.775.425-1.551.848-2.335,1.255a.586.586,0,0,1-.91-.536.617.617,0,0,1,.366-.506c.835-.448,1.666-.9,2.507-1.34a1.765,1.765,0,0,1,1.731.04c1.072.576,2.145,1.149,3.21,1.737a.393.393,0,0,0,.534-.052c.492-.433,1.01-.836,1.512-1.259a.972.972,0,0,1,.667-.237q4.587.009,9.174,0a1.434,1.434,0,0,1,1.545,1.5q.024,2.3,0,4.6a1.411,1.411,0,0,1-1.521,1.477q-2.024.009-4.048,0a1.391,1.391,0,0,1-1.5-1.518c-.006-1.508-.009-3.017.005-4.525,0-.284-.061-.374-.358-.368-.989.02-1.979.012-2.968,0a.688.688,0,0,0-.49.167c-.36.31-.731.608-1.109.921a.874.874,0,0,0,.371.244c.753.411,1.5.83,2.268,1.216a2.116,2.116,0,0,1,1.241,2.081c-.016,2.6-.005,5.208-.005,7.812,0,.309-.007.619,0,.928a2,2,0,0,1-1.223,2c-.667.323-1.32.673-2.05,1.047.516.506,1.008.986,1.5,1.468a.453.453,0,0,0,.361.089c.707,0,1.414-.012,2.12.006.266.007.348-.064.346-.34-.014-1.5-.008-2.991-.006-4.486a1.415,1.415,0,0,1,1.591-1.59q1.947-.007,3.893,0a1.447,1.447,0,0,1,1.595,1.6q.006,2.185,0,4.37a1.472,1.472,0,0,1-1.632,1.616c-2.724,0-5.448,0-8.172.006a1.037,1.037,0,0,1-.818-.335c-.533-.558-1.092-1.092-1.626-1.65a.343.343,0,0,0-.489-.08c-1.259.658-2.532,1.288-3.788,1.951a2.066,2.066,0,0,1-2.049,0q-3.6-1.861-7.213-3.692a1.908,1.908,0,0,1-1.184-1.747c0-.284-.162-.258-.347-.258q-3.065,0-6.129,0a1.489,1.489,0,0,1-1.673-1.691q0-2.146,0-4.293a1.446,1.446,0,0,1,1.591-1.6q1.966-.009,3.932,0a1.414,1.414,0,0,1,1.557,1.585c0,1.483.008,2.965-.007,4.448,0,.3.061.4.374.385.687-.024.687-.005.687-.692,0-2.282.014-4.564-.006-6.845a2.134,2.134,0,0,1,1.263-2.108c.7-.35,1.377-.738,2.067-1.1.389-.206.728-.136.9.176a.615.615,0,0,1-.342.855C69.095,98.025,68.431,98.381,67.73,98.761Z" transform="translate(-55.562 -91.124)" fill="#66005f"/>
        <path id="Path_28517" data-name="Path 28517" d="M61.069,109.531c.85,0,1.7,0,2.55,0,.456,0,.743.244.734.608s-.269.574-.724.575q-2.569.008-5.137,0c-.462,0-.751-.249-.739-.6s.3-.579.768-.58C59.369,109.53,60.219,109.531,61.069,109.531Z" transform="translate(-55.57 -102.4)" fill="#66005f"/>
        <path id="Path_28518" data-name="Path 28518" d="M60.414,95.037c.643,0,1.285,0,1.928,0,.426,0,.66.213.659.578s-.243.582-.661.583q-1.948.006-3.9,0c-.426,0-.706-.252-.692-.6s.276-.556.693-.558C59.1,95.035,59.758,95.037,60.414,95.037Z" transform="translate(-55.572 -92.151)" fill="#66005f"/>
        <path id="Path_28519" data-name="Path 28519" d="M59.809,103.437c-.451,0-.9.005-1.352,0a.634.634,0,0,1-.7-.607.625.625,0,0,1,.687-.583q1.391-.016,2.781,0a.619.619,0,0,1,.683.586c.005.349-.278.6-.7.6C60.736,103.442,60.272,103.437,59.809,103.437Z" transform="translate(-55.572 -97.232)" fill="#66005f"/>
        <path id="Path_28520" data-name="Path 28520" d="M106.245,192.792c-1.455,0-2.91-.007-4.365.006-.262,0-.345-.051-.342-.33q.022-2.53,0-5.06c0-.263.08-.316.325-.316q4.4.011,8.808,0c.248,0,.325.058.322.318q-.019,2.549,0,5.1c0,.252-.08.29-.305.289C109.207,192.787,107.726,192.792,106.245,192.792Z" transform="translate(-86.521 -157.216)" fill="#fff"/>
        <path id="Path_28521" data-name="Path 28521" d="M127.308,114.589v.332c0,2.821-.006,5.642.006,8.464a.922.922,0,0,1-.57.945c-.729.348-1.445.726-2.158,1.105a.3.3,0,0,1-.422-.069c-.428-.446-.869-.88-1.31-1.313-.327-.321-.649-.345-.912-.079s-.229.586.092.913c.352.358.709.711,1.066,1.066.092.091.161.156-.017.246-1.143.575-2.28,1.158-3.459,1.759v-1.322q0-3.9,0-7.806c0-.193-.014-.356.215-.471q3.64-1.837,7.269-3.694A1.915,1.915,0,0,1,127.308,114.589Z" transform="translate(-99.297 -105.989)" fill="#fff"/>
        <path id="Path_28522" data-name="Path 28522" d="M97.137,127.915c-1.35-.69-2.65-1.355-3.95-2.018q-1.612-.821-3.227-1.637a.811.811,0,0,1-.507-.672c-.018-.194.033-.266.246-.263.786.013,1.573.007,2.359,0a.6.6,0,0,0,.59-.357.545.545,0,0,0-.084-.611.637.637,0,0,0-.555-.21c-.761,0-1.521-.007-2.282.006-.223,0-.279-.067-.279-.284.007-2.4,0-4.8.006-7.193a1.206,1.206,0,0,1,.024-.149c.641.328,1.266.649,1.892.968q2.745,1.4,5.49,2.794c.149.075.283.125.283.35C97.135,121.71,97.137,124.778,97.137,127.915Z" transform="translate(-77.976 -105.947)" fill="#fff"/>
        <path id="Path_28523" data-name="Path 28523" d="M61.782,125.2c0-.709.011-1.418-.005-2.126-.007-.338.088-.484.459-.478,1.276.02,2.552.017,3.828,0,.357,0,.475.127.472.475q-.018,2.146,0,4.291c0,.35-.12.486-.47.483q-1.914-.016-3.828,0c-.357,0-.472-.136-.463-.482C61.795,126.644,61.782,125.922,61.782,125.2Z" transform="translate(-58.409 -111.635)" fill="#ffd8fc"/>
        <path id="Path_28524" data-name="Path 28524" d="M161.977,101.685c0,.734-.01,1.469,0,2.2.006.314-.1.434-.423.431-1.3-.013-2.6-.01-3.905,0-.292,0-.42-.1-.418-.4q.013-2.223,0-4.446c0-.288.12-.394.39-.393q1.991,0,3.982,0c.285,0,.378.131.374.406C161.969,100.216,161.977,100.95,161.977,101.685Z" transform="translate(-125.876 -95)" fill="#ffd8fc"/>
        <path id="Path_28525" data-name="Path 28525" d="M161.977,144.948c0,.735-.009,1.469,0,2.2.005.282-.107.4-.382.4q-1.991,0-3.982,0c-.272,0-.384-.12-.382-.4q.014-2.223,0-4.446c0-.279.1-.394.386-.393q1.991.011,3.983,0c.3,0,.379.126.375.4C161.971,143.453,161.977,144.2,161.977,144.948Z" transform="translate(-125.876 -125.564)" fill="#ffd8fc"/>
        <path id="Path_28526" data-name="Path 28526" d="M65.938,127.047c-.348,0-.7.01-1.044,0a.581.581,0,0,1-.631-.584.569.569,0,0,1,.611-.6q1.043-.03,2.088,0a.575.575,0,0,1,.631.623.589.589,0,0,1-.65.566C66.609,127.056,66.273,127.048,65.938,127.047Z" transform="translate(-60.164 -113.925)" fill="#66005f"/>
        <path id="Path_28527" data-name="Path 28527" d="M65.952,133.138c.348,0,.7-.005,1.043,0a.579.579,0,1,1-.008,1.156q-1.062.011-2.124,0a.578.578,0,1,1,.008-1.156C65.23,133.133,65.591,133.138,65.952,133.138Z" transform="translate(-60.164 -119.078)" fill="#66005f"/>
        <path id="Path_28528" data-name="Path 28528" d="M161.363,109.537c.347,0,.693-.01,1.04,0a.622.622,0,0,1,.642.586.606.606,0,0,1-.627.6q-1.058.026-2.118,0a.6.6,0,0,1-.623-.6.622.622,0,0,1,.646-.582C160.67,109.527,161.016,109.537,161.363,109.537Z" transform="translate(-127.599 -102.402)" fill="#66005f"/>
        <path id="Path_28529" data-name="Path 28529" d="M161.4,102.407c.334,0,.668,0,1,0a.6.6,0,0,1,.646.567.587.587,0,0,1-.624.59q-1.059.011-2.118,0a.588.588,0,0,1-.626-.587.594.594,0,0,1,.643-.57C160.678,102.4,161.038,102.407,161.4,102.407Z" transform="translate(-127.598 -97.35)" fill="#66005f"/>
        <path id="Path_28530" data-name="Path 28530" d="M161.374,146.75c-.334,0-.668.006-1,0a.636.636,0,0,1-.7-.572.618.618,0,0,1,.649-.618q1.039-.024,2.08,0a.614.614,0,0,1,.638.59.626.626,0,0,1-.668.6C162.041,146.758,161.708,146.75,161.374,146.75Z" transform="translate(-127.597 -127.845)" fill="#66005f"/>
        <path id="Path_28531" data-name="Path 28531" d="M161.379,152.837c.36,0,.719-.008,1.078,0a.576.576,0,1,1,.019,1.152q-1.117.019-2.234,0a.576.576,0,1,1,.019-1.152C160.634,152.829,161.006,152.837,161.379,152.837Z" transform="translate(-127.597 -132.994)" fill="#66005f"/>
      </g>
    </g>
  </g>
</svg>
