<svg xmlns="http://www.w3.org/2000/svg" width="101" height="60" viewBox="0 0 101 60">
  <g id="Group_5" data-name="Group 5" transform="translate(-670 -975)">
    <rect id="Rectangle_6" data-name="Rectangle 6" width="101" height="60" transform="translate(670 975)" fill="none"/>
    <g id="aws_1_" data-name="aws (1)" transform="translate(670 975)">
      <path id="Path_1" data-name="Path 1" d="M36,21.925a11.038,11.038,0,0,0,.355,2.985,22.059,22.059,0,0,0,1.066,2.416,1.436,1.436,0,0,1,.249.782,1.342,1.342,0,0,1-.639.995L34.9,30.525a1.342,1.342,0,0,1-1.883-.142A9.717,9.717,0,0,1,31.8,28.819c-.32-.569-.675-1.208-1.03-1.99a12.38,12.38,0,0,1-9.875,4.62,9.252,9.252,0,0,1-6.713-2.416A8.676,8.676,0,0,1,11.7,22.565a8.64,8.64,0,0,1,3.055-6.929A12.265,12.265,0,0,1,23,13.006a25.12,25.12,0,0,1,3.552.284c1.243.178,2.522.426,3.872.746V11.584c0-2.559-.533-4.335-1.563-5.366-1.066-1.031-2.877-1.528-5.47-1.528a16.233,16.233,0,0,0-3.623.426A30.666,30.666,0,0,0,16.14,6.254a7.153,7.153,0,0,1-1.172.426,1.973,1.973,0,0,1-.533.107c-.462,0-.71-.32-.71-1.031V4.122a2.057,2.057,0,0,1,.249-1.173,2.591,2.591,0,0,1,.924-.711A16.719,16.719,0,0,1,19.124.711a20.611,20.611,0,0,1,5.222-.64c4.014,0,6.927.924,8.809,2.736C35,4.62,35.925,7.391,35.925,11.087V21.961H36Zm-13.64,5.117a11.18,11.18,0,0,0,3.446-.6A7.344,7.344,0,0,0,29,24.27,5.53,5.53,0,0,0,30.135,22.1a11.59,11.59,0,0,0,.32-2.914V17.768a26.526,26.526,0,0,0-3.09-.569,24.025,24.025,0,0,0-3.161-.213,7.664,7.664,0,0,0-5.008,1.35,4.7,4.7,0,0,0-1.634,3.873,4.386,4.386,0,0,0,4.8,4.833Zm26.96,3.625a2.048,2.048,0,0,1-1.279-.32,2.777,2.777,0,0,1-.71-1.315L39.477,3.056a5.534,5.534,0,0,1-.32-1.35.758.758,0,0,1,.817-.853h3.3a2.028,2.028,0,0,1,1.314.32,2.787,2.787,0,0,1,.675,1.315l5.612,22.28L56.1,2.523a2.366,2.366,0,0,1,.639-1.315,2.29,2.29,0,0,1,1.35-.32h2.7a2.217,2.217,0,0,1,1.35.32,2.268,2.268,0,0,1,.639,1.315l5.293,22.494L73.9,2.523a2.93,2.93,0,0,1,.675-1.315,2.167,2.167,0,0,1,1.314-.32h3.126a.768.768,0,0,1,.853.853,3.155,3.155,0,0,1-.071.533,4.871,4.871,0,0,1-.249.853L71.446,29.1a2.6,2.6,0,0,1-.71,1.315,2.119,2.119,0,0,1-1.279.32H66.58a2.217,2.217,0,0,1-1.35-.32,2.391,2.391,0,0,1-.639-1.35L59.369,7.391,54.183,29.032a2.647,2.647,0,0,1-.639,1.35,2.055,2.055,0,0,1-1.35.32H49.317Zm43.158.924a23.232,23.232,0,0,1-5.186-.6,15.466,15.466,0,0,1-3.872-1.35,2.44,2.44,0,0,1-1.03-.924,2.315,2.315,0,0,1-.213-.924V26.083c0-.711.284-1.031.781-1.031a1.8,1.8,0,0,1,.6.107c.213.071.5.213.853.32a17.267,17.267,0,0,0,3.694,1.173,19.213,19.213,0,0,0,4.014.391,8.946,8.946,0,0,0,4.9-1.1,3.633,3.633,0,0,0,1.741-3.2,3.3,3.3,0,0,0-.924-2.345,8.34,8.34,0,0,0-3.375-1.741L89.6,17.092a10.343,10.343,0,0,1-5.364-3.411,8.075,8.075,0,0,1-1.669-4.868,7.449,7.449,0,0,1,.924-3.731A9.022,9.022,0,0,1,85.9,2.31,10.339,10.339,0,0,1,89.385.569,14.821,14.821,0,0,1,93.612,0a15.446,15.446,0,0,1,2.238.142c.781.107,1.492.249,2.167.355.675.178,1.314.32,1.918.533a8.085,8.085,0,0,1,1.421.6,2.707,2.707,0,0,1,.995.853,1.764,1.764,0,0,1,.32,1.1V5.153c0,.711-.284,1.066-.781,1.066a3.737,3.737,0,0,1-1.279-.391,15.125,15.125,0,0,0-6.465-1.315,9.135,9.135,0,0,0-4.476.924,3.238,3.238,0,0,0-1.563,2.985A3.168,3.168,0,0,0,89.1,10.8a10.03,10.03,0,0,0,3.694,1.848l4.76,1.528a10.4,10.4,0,0,1,5.222,3.234A7.432,7.432,0,0,1,104.3,22.1a8.676,8.676,0,0,1-.888,3.909,8.938,8.938,0,0,1-2.451,2.949,10.256,10.256,0,0,1-3.73,1.883A14.535,14.535,0,0,1,92.475,31.591Z" transform="translate(-7.525 0)" fill="#252f3e"/>
      <path id="Path_2" data-name="Path 2" d="M91.26,116.222c-11.047,8.173-27.1,12.508-40.922,12.508A73.941,73.941,0,0,1,.395,109.683c-1.03-.924-.107-2.2,1.137-1.492a100.506,100.506,0,0,0,49.98,13.255,100.016,100.016,0,0,0,38.115-7.782C91.509,112.846,93.072,114.871,91.26,116.222ZM95.878,111c-1.421-1.812-9.342-.888-12.93-.426-1.066.142-1.243-.817-.284-1.528,6.323-4.442,16.7-3.163,17.9-1.67,1.208,1.528-.32,11.9-6.252,16.879-.924.782-1.776.355-1.385-.64C94.28,120.273,97.264,112.775,95.878,111Z" transform="translate(0.049 -69.671)" fill="#f90"/>
    </g>
  </g>
</svg>
