<svg width="50" height="50" viewBox="0 0 50 50" fill="none" xmlns="http://www.w3.org/2000/svg">
<path d="M17.3633 3.40836H30.9248L16.8467 45.1203C16.702 45.549 16.4265 45.9214 16.059 46.1853C15.6916 46.4491 15.2506 46.5911 14.7982 46.5912H4.24407C3.90131 46.5912 3.56347 46.5096 3.25849 46.3532C2.95352 46.1968 2.69018 45.97 2.49025 45.6915C2.29033 45.4131 2.15956 45.0911 2.10878 44.7522C2.058 44.4132 2.08867 44.067 2.19823 43.7422L15.3144 4.87919C15.459 4.45039 15.7345 4.07777 16.1021 3.81381C16.4697 3.54985 16.9108 3.40838 17.3633 3.40836Z" fill="url(#paint0_linear_197_2)"/>
<path d="M37.0705 31.3859H15.5653C15.3653 31.3857 15.17 31.4457 15.0046 31.5581C14.8393 31.6705 14.7116 31.8301 14.6383 32.0161C14.5649 32.2021 14.5493 32.4058 14.5934 32.6008C14.6375 32.7959 14.7393 32.9731 14.8856 33.1094L28.7043 46.0073C29.1067 46.3826 29.6364 46.5912 30.1866 46.5911H42.3637L37.0705 31.3859Z" fill="#0078D4"/>
<path d="M17.3635 3.40834C16.906 3.40659 16.46 3.55115 16.0905 3.82092C15.721 4.0907 15.4475 4.47154 15.3099 4.90782L2.21455 43.7068C2.09761 44.0327 2.0609 44.3821 2.10752 44.7252C2.15414 45.0683 2.28272 45.3952 2.48238 45.6781C2.68204 45.9611 2.94691 46.1918 3.25458 46.3507C3.56225 46.5096 3.90368 46.5921 4.24997 46.5912H15.0765C15.4798 46.5191 15.8566 46.3413 16.1687 46.076C16.4807 45.8106 16.7167 45.4672 16.8526 45.0807L19.464 37.3844L28.7922 46.0849C29.1831 46.4082 29.6734 46.587 30.1807 46.5912H42.3125L36.9916 31.3859L21.4807 31.3896L30.9739 3.40834H17.3635Z" fill="url(#paint1_linear_197_2)"/>
<path d="M34.6848 4.87708C34.5404 4.44897 34.2653 4.07696 33.8982 3.81347C33.5312 3.54998 33.0908 3.40827 32.639 3.40833H17.5249C17.9767 3.40835 18.4171 3.55008 18.7841 3.81357C19.1511 4.07705 19.4262 4.44901 19.5707 4.87708L32.6874 43.7417C32.7971 44.0665 32.8278 44.4128 32.777 44.7518C32.7263 45.0909 32.5956 45.413 32.3957 45.6915C32.1957 45.97 31.9324 46.1969 31.6273 46.3535C31.3223 46.51 30.9844 46.5916 30.6416 46.5917H45.7562C46.0989 46.5916 46.4368 46.5098 46.7417 46.3533C47.0467 46.1967 47.31 45.9698 47.5099 45.6913C47.7097 45.4128 47.8404 45.0907 47.8911 44.7517C47.9418 44.4127 47.9111 44.0664 47.8015 43.7417L34.6848 4.87708Z" fill="url(#paint2_linear_197_2)"/>
<defs>
<linearGradient id="paint0_linear_197_2" x1="22.306" y1="6.60836" x2="8.22219" y2="48.2157" gradientUnits="userSpaceOnUse">
<stop stop-color="#114A8B"/>
<stop offset="1" stop-color="#0669BC"/>
</linearGradient>
<linearGradient id="paint1_linear_197_2" x1="26.7057" y1="25.9984" x2="23.4479" y2="27.1" gradientUnits="userSpaceOnUse">
<stop stop-opacity="0.3"/>
<stop offset="0.071" stop-opacity="0.2"/>
<stop offset="0.321" stop-opacity="0.1"/>
<stop offset="0.623" stop-opacity="0.05"/>
<stop offset="1" stop-opacity="0"/>
</linearGradient>
<linearGradient id="paint2_linear_197_2" x1="24.914" y1="5.39478" x2="40.3739" y2="46.5828" gradientUnits="userSpaceOnUse">
<stop stop-color="#3CCBF4"/>
<stop offset="1" stop-color="#2892DF"/>
</linearGradient>
</defs>
</svg>
