<svg xmlns="http://www.w3.org/2000/svg" width="50" height="50" viewBox="0 0 50 50">
  <g id="cloud_dev" data-name="cloud dev" transform="translate(87.973 58.986)">
    <rect id="holder" width="50" height="50" transform="translate(-87.973 -58.986)" fill="#ff7d25" opacity="0"/>
    <g id="icon" transform="translate(-257.923 -915.939)">
      <g id="Group_229102" data-name="Group 229102" transform="translate(174.499 861.499)">
        <path id="Path_28416" data-name="Path 28416" d="M235.568,340.186a1.2,1.2,0,1,1-1.2-1.214A1.23,1.23,0,0,1,235.568,340.186Z" transform="translate(-218.085 -326.224)" fill="#fefefe"/>
        <path id="Path_28417" data-name="Path 28417" d="M108.018,242.516a9.665,9.665,0,1,1,17.64-7.588,8.177,8.177,0,0,1,2.33-1.493,7.583,7.583,0,0,1,10.4,5.908,7.319,7.319,0,0,1-.124,2.86c-.076.3.013.31.252.352a5.421,5.421,0,0,1,4.625,4.162,5.5,5.5,0,0,1-4.381,6.739,30.009,30.009,0,0,1-3.912.085c-.266.007-.513-.038-.507.359,0,.194-.172.322-.3.453q-.7.7-1.4,1.4c-.741.741-.741.741-1.65.3-.038.139-.069.279-.115.413a.682.682,0,0,1-.7.524c-.373,0-.747.009-1.12,0-.186-.006-.244.048-.244.24q.009,3.554,0,7.108c0,.233.106.277.292.33a2.38,2.38,0,0,1,1.781,2.515,2.414,2.414,0,0,1-1.935,2.183,2.7,2.7,0,0,1-.557.034q-11.975,0-23.949,0a2.429,2.429,0,0,1-2.5-2.033,2.4,2.4,0,0,1,1.8-2.7.3.3,0,0,0,.261-.356q-.008-5.858,0-11.717a.586.586,0,0,0-.242-.463,5.523,5.523,0,0,1,2.457-9.486A7.051,7.051,0,0,1,108.018,242.516Z" transform="translate(-101.915 -228.04)" fill="#752e87"/>
        <path id="Path_28418" data-name="Path 28418" d="M381.939,464.926c0,.846.006,1.693,0,2.539a2.039,2.039,0,0,1-2.021,2.027c-.617.007-1.234-.006-1.85.006-.2,0-.26-.05-.269-.26-.045-1.123-.052-1.123,1.08-1.123.272,0,.545,0,.818,0,.6-.007.863-.263.864-.866,0-1.65.011-3.3-.007-4.949,0-.324.077-.4.4-.4.989.019.989,0,.989,1Q381.939,463.914,381.939,464.926Z" transform="translate(-346.08 -435.027)" fill="#752e87"/>
        <path id="Path_28419" data-name="Path 28419" d="M353.971,516.612c0-.65,0-.65.643-.65.736,0,.736,0,.736.729,0,.65,0,.65-.643.65C353.971,517.341,353.971,517.341,353.971,516.612Z" transform="translate(-325.005 -482.874)" fill="#752e87"/>
        <path id="Path_28420" data-name="Path 28420" d="M144.857,259.411l.21-.369a.667.667,0,0,0-.107-.865q-.949-.969-1.917-1.92c-.432-.427-.837-.183-1.257.108-.049-.173-.08-.321-.132-.462a.675.675,0,0,0-.667-.507h-2.756a.677.677,0,0,0-.69.532c-.043.134-.077.271-.116.409-.892-.456-.9-.455-1.593.244l-1.218,1.218c-.729.729-.729.729-.288,1.612a1.308,1.308,0,0,1-.7.123q-8.311,0-16.622,0a2.084,2.084,0,0,0-2.183,1.6,3.751,3.751,0,0,1-.691-2.653,4.122,4.122,0,0,1,4.306-3.768c.531,0,1.063-.01,1.593,0a.708.708,0,0,0,.722-.362.734.734,0,0,0-.113-.839,8.068,8.068,0,0,1-1.71-5.2,8.253,8.253,0,0,1,16.382-1.223c.01.056.036.11.041.167a.706.706,0,0,0,.552.683.729.729,0,0,0,.8-.376,6.189,6.189,0,0,1,11.1,2.937,6.317,6.317,0,0,1-.417,3.112c-.265.672.027,1.1.753,1.09a4.141,4.141,0,1,1,.608,8.257c-.9.053-1.808.005-2.712.023-.245,0-.239-.117-.237-.289.005-.66,0-1.321,0-1.981C145.8,259.73,145.8,259.73,144.857,259.411Z" transform="translate(-112.703 -238.85)" fill="#fff"/>
        <path id="Path_28421" data-name="Path 28421" d="M150.19,422.8c-.066.118-.125.232-.193.339a.686.686,0,0,0,.117.933c.616.622,1.242,1.235,1.856,1.859.446.454.856.212,1.288-.073.125.44.2.9.757.982.088.014.047.15.047.229,0,2.355-.005,4.709.009,7.063,0,.349-.2.267-.387.267-2.771,0-5.541.006-8.312,0-.454,0-.84.056-.952.579-.033.156-.141.113-.23.113-.775,0-1.55,0-2.326,0-.131,0-.187-.028-.228-.173-.114-.407-.419-.524-.825-.523-2.8.009-5.6,0-8.4.014-.344,0-.415-.094-.414-.422q.017-6.546.008-13.093c0-.746.225-.968.979-.968q7.924,0,15.848-.009c.35,0,.429.1.41.426-.027.458-.007.918-.007,1.378,0,.69.089.812.734,1.008C150.041,422.749,150.108,422.773,150.19,422.8Z" transform="translate(-128.543 -397.866)" fill="#fae4ff"/>
        <path id="Path_28422" data-name="Path 28422" d="M127.2,559.976q-5.9,0-11.8,0a1.151,1.151,0,0,1-1.157-.578,1.02,1.02,0,0,1,.969-1.489c.789-.018,1.579,0,2.368,0q3.23,0,6.459,0c.238,0,.417-.007.494.3a.564.564,0,0,0,.6.394q2.067,0,4.134,0a.618.618,0,0,0,.654-.454c.061-.233.175-.238.357-.238q4.414,0,8.827,0a1.045,1.045,0,1,1-.023,2.065Q133.143,559.979,127.2,559.976Z" transform="translate(-112.721 -519.996)" fill="#fff"/>
        <path id="Path_28423" data-name="Path 28423" d="M303.646,388.835c0,.8,0,.8-.76,1.023a.7.7,0,0,0-.477,1.118c.379.7.379.7-.184,1.263s-.556.556-1.264.178a.7.7,0,0,0-1.115.485c-.222.755-.222.755-1.026.755s-.8,0-1.024-.758a.7.7,0,0,0-1.154-.456c-.653.368-.653.368-1.2-.176l-.03-.03c-.556-.556-.556-.556-.179-1.264a.705.705,0,0,0-.483-1.12c-.756-.231-.756-.231-.756-1.022s0-.8.758-1.023a.7.7,0,0,0,.456-1.155c-.367-.654-.367-.654.176-1.2l.031-.03c.563-.563.563-.563,1.267-.184a.694.694,0,0,0,1.113-.481c.222-.754.222-.754,1.027-.754s.8,0,1.022.759a.694.694,0,0,0,1.117.472c.7-.377.7-.377,1.266.191s.556.556.176,1.264a.7.7,0,0,0,.445,1.106c.014,0,.029,0,.042.009C303.646,388.03,303.646,388.03,303.646,388.835Z" transform="translate(-271.923 -366.083)" fill="#fff"/>
        <path id="Path_28424" data-name="Path 28424" d="M228.939,330.018q2.367,0,4.734,0a2.043,2.043,0,0,1,2.13,2.135c0,.359-.01.718,0,1.076.008.194-.063.23-.244.24-1.137.06-1.137.065-1.138-1.064,0-.8-.213-1.009-1.024-1.009h-9.038c-.743,0-.964.226-.965.981,0,.717-.008,1.435,0,2.152,0,.228-.036.317-.3.321-1.088.015-1.087.025-1.087-1.074,0-.56,0-1.119,0-1.679a2.041,2.041,0,0,1,2.1-2.079C225.726,330.015,227.332,330.018,228.939,330.018Z" transform="translate(-208.216 -318.298)" fill="#752e87"/>
        <path id="Path_28425" data-name="Path 28425" d="M222.675,385.386c-.648,0-.648,0-.648-.645,0-.734,0-.734.731-.734.648,0,.648,0,.648.645C223.405,385.386,223.405,385.386,222.675,385.386Z" transform="translate(-208.224 -366.083)" fill="#752e87"/>
        <path id="Path_28426" data-name="Path 28426" d="M317.5,404.752A2.757,2.757,0,1,1,314.75,402,2.736,2.736,0,0,1,317.5,404.752Z" transform="translate(-287.848 -382.01)" fill="#752e87"/>
        <path id="Path_28427" data-name="Path 28427" d="M326.76,415.421a1.376,1.376,0,1,1-1.349-1.392A1.412,1.412,0,0,1,326.76,415.421Z" transform="translate(-298.486 -392.655)" fill="#fae4ff"/>
      </g>
    </g>
  </g>
</svg>
