<svg xmlns="http://www.w3.org/2000/svg" width="37.534" height="37.533" viewBox="0 0 37.534 37.533">
  <g id="Upgrade_" data-name="Upgrade &amp; " transform="translate(-120.695 -210.624)">
    <path id="Path_28159" data-name="Path 28159" d="M205.983,227.774c.218.919.414,1.746.609,2.572a.318.318,0,0,0,.377.279c.3-.018.6-.011.906,0a1.509,1.509,0,1,1-.027,3.018q-4.7.008-9.4,0c-.3,0-.6.007-.906,0a1.508,1.508,0,0,1-.024-3.012c.339-.018.681.013,1.018-.018a.43.43,0,0,0,.321-.22c.209-.836.389-1.68.6-2.616H198.9q-2.681,0-5.362,0a2.154,2.154,0,0,1-2.353-2.405q0-6.193,0-12.386a2.145,2.145,0,0,1,2.322-2.358h18.881a1.729,1.729,0,0,1,1.912,1.941q0,6.423,0,12.846a2.147,2.147,0,0,1-2.32,2.362q-2.7,0-5.4,0Zm7.258-4.277v-.4q0-5.253,0-10.505c0-.688-.2-.888-.875-.888h-18.84c-.9,0-1.285.393-1.285,1.305q0,5.042,0,10.084v.409Zm0,1.109h-21c0,.254,0,.482,0,.71,0,1.02.357,1.384,1.361,1.384h18.273a3.275,3.275,0,0,0,.452-.022,1.022,1.022,0,0,0,.906-.972C213.254,225.349,213.236,224.992,213.236,224.606Zm-13.25,5.986h5.5l-.522-2.788h-4.493Zm2.715,1.978q2.547,0,5.095,0c.309,0,.533-.119.525-.456-.007-.318-.234-.425-.522-.42-.063,0-.126,0-.189,0h-9.737a1.833,1.833,0,0,0-.376.018.411.411,0,0,0-.221.7.784.784,0,0,0,.48.148C199.4,232.573,201.053,232.569,202.7,232.569Z" transform="translate(-63.281)" fill="#008be7"/>
    <path id="Path_28160" data-name="Path 28160" d="M174.692,440.848q1.571,0,3.141,0c.548,0,.681.133.715.7a5.871,5.871,0,0,0,11.715.479c.1-1.183.032-1.184,1.268-1.177,1.892.01,3.785,0,5.677,0,.765,0,.859.1.859.889,0,.281,0,.562,0,.844a1.377,1.377,0,0,1-1.389,1.528,2.414,2.414,0,0,0-1.771,4.006,1.448,1.448,0,0,1-.079,2.275q-.789.8-1.579,1.6a1.383,1.383,0,0,1-2.109.065,2.23,2.23,0,0,0-2.523-.475,2.283,2.283,0,0,0-1.482,2.161,1.411,1.411,0,0,1-1.545,1.463q-1.136,0-2.271,0a1.435,1.435,0,0,1-1.608-1.559,2.362,2.362,0,0,0-3.149-2.114,2.84,2.84,0,0,0-.827.519,1.41,1.41,0,0,1-2.143-.071q-.819-.824-1.633-1.654a1.426,1.426,0,0,1-.053-2.164,2.419,2.419,0,0,0-1.115-3.957,6.054,6.054,0,0,0-.786-.1,1.367,1.367,0,0,1-1.215-1.343c-.013-.434-.01-.869,0-1.3s.187-.6.609-.6C172.5,440.845,173.595,440.848,174.692,440.848Zm16.677,1.086A7.04,7.04,0,0,1,184.5,448.4a6.757,6.757,0,0,1-4.351-1.5,7.028,7.028,0,0,1-2.644-4.951h-5.655c0,.218.011.409,0,.6-.025.341.125.495.458.5a3.185,3.185,0,0,1,.6.07,3.489,3.489,0,0,1,1.84,5.7c-.329.387-.329.441.015.79.525.534,1.06,1.06,1.575,1.6a.426.426,0,0,0,.7.021,3.219,3.219,0,0,1,3.652-.633,3.275,3.275,0,0,1,2.078,3.029c.019.347.15.509.509.5.681-.015,1.362,0,2.044,0,.712,0,.712,0,.773-.736a1.742,1.742,0,0,1,.022-.19,3.348,3.348,0,0,1,2.269-2.686,3.241,3.241,0,0,1,3.388.67c.387.332.437.335.806-.038q.724-.731,1.446-1.464c.435-.442.435-.442.029-.931a3.492,3.492,0,0,1,1.58-5.543c.309-.1.65-.087.962-.176a.6.6,0,0,0,.388-.311,3.323,3.323,0,0,0,.018-.791Z" transform="translate(-44.968 -207.046)" fill="#008be7"/>
    <path id="Path_28161" data-name="Path 28161" d="M125.087,302.568a7.085,7.085,0,0,0-2.094,2.6,11.265,11.265,0,0,0,.663,11.475,5.909,5.909,0,0,0,2.6,2.212c.4.179.536.465.384.768-.139.277-.451.354-.827.187a7.557,7.557,0,0,1-3.347-3,11.993,11.993,0,0,1-1.743-7.352,11.053,11.053,0,0,1,1.749-5.542c.526-.788,1.2-1.482,1.8-2.222l-1.063-.219c-.1-.021-.2-.037-.3-.067a.488.488,0,0,1-.378-.607.46.46,0,0,1,.556-.4q1.469.26,2.928.573a.463.463,0,0,1,.354.587c-.181.936-.366,1.871-.574,2.8a.486.486,0,0,1-.622.364.506.506,0,0,1-.409-.623C124.859,303.623,124.967,303.147,125.087,302.568Z" transform="translate(0 -80.589)" fill="#008be7"/>
    <path id="Path_28162" data-name="Path 28162" d="M434.114,302.647c.109.531.2.981.294,1.432.075.372-.068.64-.374.713-.336.079-.588-.1-.672-.49-.179-.834-.355-1.669-.522-2.5-.1-.5.033-.7.538-.8.824-.172,1.65-.334,2.475-.5.05-.01.1-.016.152-.021.365-.038.611.117.659.415s-.118.532-.477.615c-.444.1-.892.184-1.353.277.422.436.853.827,1.22,1.27a10.8,10.8,0,0,1,2.336,5.676,12.357,12.357,0,0,1-1.275,7.489,8.091,8.091,0,0,1-3.211,3.4,5.186,5.186,0,0,1-.655.309.524.524,0,0,1-.706-.257.5.5,0,0,1,.274-.695,7.078,7.078,0,0,0,3.8-4.273,11.339,11.339,0,0,0-.781-10.11A6.518,6.518,0,0,0,434.114,302.647Z" transform="translate(-280.278 -80.659)" fill="#008be7"/>
    <path id="Path_28163" data-name="Path 28163" d="M256.791,440.874h4.869c.6,0,.756.161.745.744a5.6,5.6,0,0,1-11.04,1.122,6.979,6.979,0,0,1-.156-1.212c-.025-.465.171-.652.637-.653Q254.318,440.871,256.791,440.874Zm-4.446,1.093a4.482,4.482,0,0,0,4.541,3.973c2.248-.04,4.39-1.982,4.368-3.973Z" transform="translate(-117.344 -206.979)" fill="#008be7"/>
    <path id="Path_28164" data-name="Path 28164" d="M222.654,232.928H201.685v-.409q0-5.042,0-10.084c0-.912.386-1.305,1.283-1.305H221.78c.677,0,.874.2.874.888q0,5.253,0,10.505Z" transform="translate(-72.71 -9.431)" fill="#d5eeff"/>
    <path id="Path_28165" data-name="Path 28165" d="M222.649,347.38c0,.386.018.744,0,1.1a1.021,1.021,0,0,1-.9.972,3.272,3.272,0,0,1-.451.022H203.045c-1,0-1.359-.364-1.359-1.384,0-.228,0-.456,0-.71Zm-10.463.506c-.3,0-.6-.007-.9,0a.474.474,0,0,0-.5.47.467.467,0,0,0,.428.57,17.3,17.3,0,0,0,1.911,0,.466.466,0,0,0,.423-.573.476.476,0,0,0-.5-.465C212.762,347.879,212.474,347.885,212.187,347.886Z" transform="translate(-72.71 -122.916)" fill="#fff"/>
    <path id="Path_28166" data-name="Path 28166" d="M278.607,381.442l.491-2.788h4.562l.53,2.788Z" transform="translate(-141.944 -151.029)" fill="#fff"/>
    <path id="Path_28167" data-name="Path 28167" d="M256.043,417.585c-1.673,0-3.346,0-5.019-.006a.805.805,0,0,1-.487-.148.409.409,0,0,1,.224-.7,1.888,1.888,0,0,1,.382-.018h9.885c.064,0,.128,0,.192,0,.292,0,.522.1.53.42.008.336-.219.456-.533.456Q258.629,417.582,256.043,417.585Z" transform="translate(-116.623 -185.222)" fill="#fff"/>
    <path id="Path_28168" data-name="Path 28168" d="M200.781,451.5h5.626a3.326,3.326,0,0,1-.018.791.6.6,0,0,1-.387.311c-.312.089-.653.079-.961.176a3.494,3.494,0,0,0-1.578,5.543c.406.489.406.489-.029.931q-.721.732-1.444,1.464c-.368.372-.419.369-.805.038a3.235,3.235,0,0,0-3.385-.67,3.347,3.347,0,0,0-2.267,2.686,1.762,1.762,0,0,0-.022.19c-.061.736-.061.736-.772.736-.681,0-1.361-.011-2.041,0-.359.008-.489-.154-.508-.5a3.275,3.275,0,0,0-2.076-3.029,3.213,3.213,0,0,0-3.648.633.426.426,0,0,1-.7-.021c-.515-.543-1.049-1.069-1.574-1.6-.343-.349-.343-.4-.015-.79a3.49,3.49,0,0,0-1.838-5.7,3.189,3.189,0,0,0-.6-.07c-.333-.01-.482-.164-.458-.5.014-.189,0-.38,0-.6h5.649a7.03,7.03,0,0,0,2.641,4.951,6.746,6.746,0,0,0,4.346,1.5A7.035,7.035,0,0,0,200.781,451.5Z" transform="translate(-54.387 -216.612)" fill="#d5eeff"/>
    <path id="Path_28169" data-name="Path 28169" d="M262.342,451.568h8.909c.023,1.99-2.12,3.933-4.368,3.973A4.482,4.482,0,0,1,262.342,451.568Z" transform="translate(-127.342 -216.574)" fill="#fff"/>
    <path id="Path_28170" data-name="Path 28170" d="M293.617,352.3c.293,0,.586-.007.878,0a.481.481,0,0,1,.509.465.467.467,0,0,1-.43.573,17.894,17.894,0,0,1-1.943,0,.469.469,0,0,1-.435-.57.478.478,0,0,1,.5-.47C293.006,352.294,293.311,352.3,293.617,352.3Z" transform="translate(-154.14 -127.333)" fill="#008be7"/>
  </g>
</svg>
