<svg xmlns="http://www.w3.org/2000/svg" width="53.815" height="53.826" viewBox="0 0 53.815 53.826">
  <g id="React_Native_" data-name="React Native " transform="translate(0 0)">
    <path id="Path_28308" data-name="Path 28308" d="M490.8,528.08a6.41,6.41,0,0,1,1.423.6,3.713,3.713,0,0,1,1.721,3.186q.011,18.054,0,36.109a3.791,3.791,0,0,1-4.011,3.807q-7.909.007-15.819-.01c-.5,0-.686.1-.633.624a10.524,10.524,0,0,1,0,1.47.811.811,0,0,1-.8.86.836.836,0,0,1-.794-.877c-.014-.56-.017-1.122,0-1.682.009-.28-.05-.391-.365-.39q-4.494.018-8.987,0c-.28,0-.349.082-.348.354q.015,3.942,0,7.884c0,.256.076.32.325.32q4.52-.012,9.039,0c.295,0,.341-.106.335-.363-.015-.736-.011-1.472,0-2.208.006-.57.3-.916.776-.931.512-.016.813.309.823.927.012.683.024,1.367,0,2.049-.017.391.064.552.5.53.8-.041,1.611-.015,2.417-.01.559,0,.921.31.929.775a.809.809,0,0,1-.905.8q-9.381,0-18.762,0a.811.811,0,0,1-.913-.791c0-.466.363-.78.92-.784.841,0,1.682-.017,2.522.007.328.009.408-.089.407-.411-.013-2.575-.018-5.151,0-7.727,0-.434-.2-.421-.511-.421q-7.857.008-15.714,0a3.827,3.827,0,0,1-4.17-3.06c-.008-.026-.05-.042-.076-.063v-.21a1.072,1.072,0,0,0,.052-.566q0-17.936,0-35.873a1.072,1.072,0,0,0-.052-.566v-.21a3.582,3.582,0,0,1,1.161-2.259,3.186,3.186,0,0,1,1.992-.9Z" transform="translate(-440.131 -528.08)" fill="#058282"/>
    <path id="Path_28309" data-name="Path 28309" d="M440.131,538.441c.169.134.1.323.1.489q0,18.013,0,36.026c0,.166.067.355-.1.489Z" transform="translate(-440.131 -535.077)" fill="#1e1e1d"/>
    <path id="Path_28310" data-name="Path 28310" d="M470.336,565.242q-12.35,0-24.7.012c-.508,0-.627-.122-.626-.628q.025-14.533.012-29.066c0-1.8.828-2.623,2.634-2.623H493.01c1.8,0,2.637.828,2.637,2.621q0,14.533.012,29.066c0,.5-.111.632-.623.631Q482.686,565.228,470.336,565.242Z" transform="translate(-443.425 -531.36)" fill="#dbeff1"/>
    <path id="Path_28311" data-name="Path 28311" d="M470.333,637.438q12.373,0,24.745-.009c.44,0,.6.071.584.56-.042,1.207-.009,2.417-.015,3.625A2.181,2.181,0,0,1,493.27,644q-22.933,0-45.865,0a2.182,2.182,0,0,1-2.381-2.377c-.006-1.226.019-2.452-.012-3.678-.011-.427.124-.511.525-.51Q457.935,637.447,470.333,637.438Z" transform="translate(-443.426 -601.922)" fill="#dbeff1"/>
    <path id="Path_28312" data-name="Path 28312" d="M465.39,567.493a10.931,10.931,0,0,0,8.97-4.736.629.629,0,0,0,.063-.744,12.377,12.377,0,0,1-.009-11.063.628.628,0,0,0-.046-.745,11.06,11.06,0,0,0-15.273-2.83c-.545.361-.994.325-1.281-.1s-.159-.844.389-1.228a12.6,12.6,0,0,1,16.953,2.562c.3.377.414.406.741.008a12.306,12.306,0,0,1,11-4.706,12.6,12.6,0,0,1,.877,24.982,12.228,12.228,0,0,1-11.949-4.65c-.228-.274-.317-.359-.584-.023a12.277,12.277,0,0,1-10.423,4.856,12.552,12.552,0,0,1-11.9-10.32,12.3,12.3,0,0,1,2.179-9.688c.357-.5.856-.626,1.248-.329s.41.76.056,1.253a11.018,11.018,0,0,0,6.084,17.121,12.514,12.514,0,0,0,1.541.3C464.458,567.474,464.9,567.468,465.39,567.493Z" transform="translate(-448.614 -538.73)" fill="#058282"/>
    <path id="Path_28313" data-name="Path 28313" d="M475.75,572.774q0-1.13,0-2.26c0-.7.275-1.054.809-1.05s.784.332.785,1.065c0,1.419,0,2.838,0,4.257a1.493,1.493,0,0,0,1.018,1.593,1.893,1.893,0,0,0,2.008-.525,1.405,1.405,0,0,0,.283-.982q0-2.233,0-4.467c0-.467.137-.834.651-.925a.77.77,0,0,1,.942.792c.015,1.682.074,3.367-.018,5.044-.122,2.244-2.95,3.523-4.959,2.3a2.9,2.9,0,0,1-1.522-2.684C475.762,574.211,475.75,573.492,475.75,572.774Z" transform="translate(-464.182 -556.026)" fill="#058282"/>
    <path id="Path_28314" data-name="Path 28314" d="M502.336,573.788c0-1.1,0-2.2,0-3.306,0-.654.285-1.007.8-1.015s.822.331.824.987q.01,3.306,0,6.612c0,.646-.3,1.022-.8,1.03-.513.008-.823-.383-.825-1.055C502.333,575.957,502.336,574.873,502.336,573.788Z" transform="translate(-482.137 -556.028)" fill="#058282"/>
    <path id="Path_28315" data-name="Path 28315" d="M518.056,645.043c.489,0,.978-.012,1.467,0a.816.816,0,1,1,0,1.62q-1.466.022-2.933,0a.816.816,0,1,1,0-1.62C517.078,645.031,517.567,645.043,518.056,645.043Z" transform="translate(-491.145 -607.061)" fill="#058282"/>
    <path id="Path_28316" data-name="Path 28316" d="M520.542,559.806a11.017,11.017,0,1,1,11,11.019A11.034,11.034,0,0,1,520.542,559.806Z" transform="translate(-494.432 -542.068)" fill="#dbeff1"/>
    <path id="Path_28317" data-name="Path 28317" d="M531.688,572.824c0-.823-.006-1.647,0-2.47.006-.578.3-.9.794-.894s.788.34.79.909c.006,1.524.043,3.049-.015,4.571a1.66,1.66,0,0,0,3.313-.014c-.065-1.433-.016-2.872-.016-4.308a3.635,3.635,0,0,1,0-.368.789.789,0,0,1,.813-.786.717.717,0,0,1,.784.746,43.655,43.655,0,0,1-.064,5.458,3.23,3.23,0,0,1-3.573,2.4,3.1,3.1,0,0,1-2.833-3.248C531.685,574.155,531.688,573.49,531.688,572.824Z" transform="translate(-501.957 -556.024)" fill="#058282"/>
    <path id="Path_28318" data-name="Path 28318" d="M559.467,572.1c.522-.743,1.021-1.457,1.524-2.167a.956.956,0,0,1,.543-.467.768.768,0,0,1,.881.3.81.81,0,0,1-.039.978c-.563.8-1.112,1.613-1.7,2.4a.5.5,0,0,0,0,.711c.663.9,1.3,1.823,1.94,2.74.393.562.368,1.036-.058,1.328s-.859.154-1.268-.424q-.878-1.241-1.752-2.486c-.019-.026-.057-.039-.114-.077-.64.907-1.278,1.818-1.924,2.722a.763.763,0,0,1-1.041.322.754.754,0,0,1-.412-.964,1.607,1.607,0,0,1,.27-.445c.64-.918,1.269-1.843,1.934-2.742a.472.472,0,0,0-.009-.677c-.561-.759-1.094-1.538-1.632-2.313-.367-.529-.324-.992.109-1.277.4-.262.847-.129,1.2.364C558.429,570.634,558.93,571.345,559.467,572.1Z" transform="translate(-518.385 -556.003)" fill="#058282"/>
  </g>
</svg>
