<svg xmlns="http://www.w3.org/2000/svg" width="50" height="50" viewBox="0 0 50 50">
  <g id="frontend" transform="translate(-13.761 -27.747)">
    <rect id="holder" width="50" height="50" transform="translate(13.761 27.747)" fill="#ff7d25" opacity="0"/>
    <g id="Group_229238" data-name="Group 229238" transform="translate(15.667 29.653)">
      <path id="Path_27631" data-name="Path 27631" d="M471.483,266.871q10.5,0,21,.01c.408,0,.524-.077.523-.512q-.024-10.762-.012-21.523c0-.917-.221-1.14-1.126-1.141-.4,0-.8.008-1.2,0a.716.716,0,0,1-.759-.794.707.707,0,0,1,.759-.744c.561-.01,1.122-.013,1.682,0a2.29,2.29,0,0,1,2.18,2.2c.014.868,0,1.737,0,2.606,0,8.348-.021,16.7.02,25.045a2.519,2.519,0,0,1-2.563,2.592q-20.524-.046-41.047,0a2.528,2.528,0,0,1-2.578-2.58q.06-13.657,0-27.313a2.44,2.44,0,0,1,2.577-2.565c.4.037.8,0,1.2.006.582.005.873.27.866.785-.006.494-.29.752-.845.758-.4,0-.8,0-1.2,0-.779,0-1.038.259-1.038,1.036q0,6.756,0,13.512c0,2.719.007,5.437-.009,8.156,0,.369.081.473.463.472Q460.933,266.861,471.483,266.871Z" transform="translate(-448.37 -237.507)" fill="#f03"/>
      <path id="Path_27632" data-name="Path 27632" d="M479.777,238.988c-4.96,0-9.919.005-14.878-.01-.386,0-.461.11-.46.475q.016,9.338.007,18.675c0,.645-.28.962-.815.936a.719.719,0,0,1-.718-.693c-.01-.128,0-.257,0-.386,0-8.058.022-16.117-.019-24.175a2.512,2.512,0,0,1,2.536-2.563q14.4.055,28.8,0a2.486,2.486,0,0,1,2.5,2.5c-.033,8.123-.016,16.246-.016,24.368,0,.663-.255.966-.8.954a.7.7,0,0,1-.738-.715c-.01-.16,0-.322,0-.482q0-9.192.011-18.385c0-.433-.111-.516-.521-.514C489.7,238.993,484.736,238.988,479.777,238.988Z" transform="translate(-456.712 -231.246)" fill="#f03"/>
      <path id="Path_27633" data-name="Path 27633" d="M483.253,325.009h9.975c-.3-.422-.594-.811-.864-1.213a6.1,6.1,0,0,1-.425-.752.776.776,0,0,1,.333-1.105.745.745,0,0,1,1.045.389,8.771,8.771,0,0,0,1.7,2.257,1.319,1.319,0,0,0,1.1.446,3.363,3.363,0,0,1,1.337.086,2.339,2.339,0,0,1,1.611,2.17q.011.747,0,1.495c-.006.582-.277.868-.846.868q-9.958,0-19.916,0a.76.76,0,0,1-.856-.86c-.006-.514-.009-1.029,0-1.543a2.308,2.308,0,0,1,2.265-2.228.228.228,0,0,1,.049,0,2.3,2.3,0,0,0,2.394-1.127,9.209,9.209,0,0,0,.99-1.474c.267-.522.659-.688,1.088-.484.449.214.562.658.3,1.188A9.588,9.588,0,0,1,483.253,325.009Z" transform="translate(-465.166 -283.464)" fill="#f03"/>
      <path id="Path_27634" data-name="Path 27634" d="M495.6,271.251c.012-.041.042-.164.082-.284q2.273-6.819,4.544-13.639a.808.808,0,0,1,.635-.642c.651-.109,1.071.428.85,1.108-.454,1.4-.923,2.792-1.387,4.188q-1.551,4.663-3.1,9.326c-.219.657-.433.85-.9.82A.766.766,0,0,1,495.6,271.251Z" transform="translate(-475.595 -245.911)" fill="#f03"/>
      <path id="Path_27635" data-name="Path 27635" d="M481.789,264.74c.029.334-.228.536-.476.743-1.147.957-2.288,1.922-3.445,2.867-.225.183-.233.257,0,.445,1.183.964,2.348,1.95,3.521,2.926.253.21.492.43.452.8a.778.778,0,0,1-1.257.561q-2.37-1.936-4.7-3.918a.745.745,0,0,1,.035-1.211c1.523-1.284,3.057-2.554,4.588-3.829a.76.76,0,0,1,.853-.116A.734.734,0,0,1,481.789,264.74Z" transform="translate(-464.058 -250.082)" fill="#f03"/>
      <path id="Path_27636" data-name="Path 27636" d="M516.263,273.246a.756.756,0,0,1-.734-.525.722.722,0,0,1,.241-.865q1-.831,2-1.666c.555-.463,1.1-.94,1.67-1.385.241-.188.2-.275-.01-.448-1.168-.958-2.323-1.932-3.483-2.9-.479-.4-.58-.865-.266-1.238s.78-.368,1.268.037q2.169,1.8,4.332,3.611a.818.818,0,0,1-.009,1.442q-2.183,1.822-4.371,3.639A.955.955,0,0,1,516.263,273.246Z" transform="translate(-487.051 -250.095)" fill="#f03"/>
      <path id="Path_27637" data-name="Path 27637" d="M473.564,303.876q10.521,0,21.043-.01c.4,0,.505.089.493.494-.032,1.06-.007,2.123-.012,3.184,0,.684-.278.959-.967.959q-20.563,0-41.126,0c-.683,0-.959-.281-.962-.965,0-1.077.019-2.155-.011-3.232-.011-.377.106-.437.451-.437Q463.018,303.884,473.564,303.876Z" transform="translate(-450.468 -273.09)" fill="#feeff2"/>
      <path id="Path_27638" data-name="Path 27638" d="M481.9,239.554c-4.956,0-9.912-.006-14.868.01-.4,0-.5-.094-.491-.5.031-1.06.007-2.123.012-3.184,0-.686.277-.963.962-.963q14.389,0,28.777,0c.683,0,.956.278.96.966.005,1.078-.017,2.156.011,3.233.009.368-.094.442-.447.442Q489.359,239.544,481.9,239.554Z" transform="translate(-458.81 -233.357)" fill="#feeff2"/>
      <path id="Path_27639" data-name="Path 27639" d="M490.293,334.472c-2.911,0-5.821-.008-8.731.01-.392,0-.52-.076-.5-.489.039-.812.261-1.065,1.072-1.065h16.4a1.014,1.014,0,0,1,1.071,1.4c-.06.236-.223.14-.34.141-1.222.008-2.444,0-3.666,0Z" transform="translate(-467.242 -289.829)" fill="#feeff2"/>
      <path id="Path_27640" data-name="Path 27640" d="M499.761,309.057c-.5,0-1,.006-1.5,0a.754.754,0,0,1-.826-.748.768.768,0,0,1,.838-.791q1.52-.011,3.04,0a.772.772,0,0,1,.826.806.751.751,0,0,1-.838.733C500.791,309.061,500.276,309.057,499.761,309.057Z" transform="translate(-476.652 -275.181)" fill="#f03"/>
      <path id="Path_27641" data-name="Path 27641" d="M515.481,240.1q-2.241,0-4.483,0c-.605,0-.9-.244-.913-.74-.012-.52.3-.8.908-.8q4.507,0,9.013,0c.574,0,.9.281.9.768s-.321.773-.892.774Q517.747,240.1,515.481,240.1Z" transform="translate(-483.961 -235.442)" fill="#f03"/>
      <path id="Path_27642" data-name="Path 27642" d="M470.972,240.1a.771.771,0,1,1,.767-.753A.752.752,0,0,1,470.972,240.1Z" transform="translate(-460.947 -235.444)" fill="#f03"/>
      <path id="Path_27643" data-name="Path 27643" d="M478.216,240.1a.771.771,0,1,1,.782-.739A.755.755,0,0,1,478.216,240.1Z" transform="translate(-465.13 -235.444)" fill="#f03"/>
      <path id="Path_27644" data-name="Path 27644" d="M485.465,240.1a.756.756,0,0,1-.751-.816.772.772,0,0,1,1.542.088A.755.755,0,0,1,485.465,240.1Z" transform="translate(-469.313 -235.444)" fill="#f03"/>
    </g>
  </g>
</svg>
