<svg xmlns="http://www.w3.org/2000/svg" width="50" height="50" viewBox="0 0 50 50">
  <g id="backend" transform="translate(-14.027 -28.014)">
    <rect id="holder" width="50" height="50" transform="translate(14.027 28.014)" fill="#ff7d25" opacity="0"/>
    <g id="Group_229239" data-name="Group 229239" transform="translate(16.107 36.714)">
      <path id="Path_27646" data-name="Path 27646" d="M460.261,66.517h16.521c.821,0,1.036.216,1.036,1.045q0,10.792,0,21.584c0,.85-.21,1.057-1.072,1.058-.525,0-1.052.022-1.575-.008-.335-.02-.419.076-.417.413.016,2.515.008,5.03.008,7.545,0,.859,0,1.719,0,2.579,0,.668-.256.931-.91.932-4.154,0-8.308,0-12.462.008-.318,0-.389-.089-.387-.394.006-1.142,0-1.142,1.112-1.142q5.324,0,10.648.006c.335,0,.5-.03.485-.443-.031-1.091-.008-1.091-1.119-1.091-3.549,0-7.1-.008-10.648.011-.412,0-.49-.115-.48-.5.027-1.041.009-1.041,1.071-1.041.509,0,1.022-.033,1.527.01.421.036.481-.123.477-.5-.019-1.958-.027-3.916,0-5.873.007-.461-.146-.525-.552-.522-2.658.017-5.316.009-7.974.009H443.663c-.758,0-.991-.234-.991-.994q0-10.864,0-21.728c0-.726.241-.965.972-.965Z" transform="translate(-431.977 -66.517)" fill="#006e9d"/>
      <path id="Path_27647" data-name="Path 27647" d="M431.007,123.723c-3.326,0-6.651.007-9.977,0a3.8,3.8,0,0,1-3.762-3.673c0-.631.259-.9.883-.908.843,0,1.687-.019,2.53.008.338.011.415-.084.414-.417q-.018-6.493-.008-12.986c0-.947.181-1.124,1.147-1.124,1.273,0,2.546.011,3.819-.008.312,0,.393.08.391.391-.007,1.145.006,1.145-1.156,1.145-.78,0-1.56.012-2.339-.006-.274-.007-.339.077-.339.344q.013,6.159,0,12.317c0,.269.072.341.341.341q8.067-.012,16.135,0c.33,0,.345-.13.343-.388-.009-1.528,0-3.056-.012-4.583,0-.306.069-.4.387-.395,1.148.008,1.148-.006,1.148,1.154,0,1.273.01,2.547-.008,3.819,0,.309.073.4.389.393.859-.023,1.718-.012,2.578-.007.594,0,.86.284.86.884a3.8,3.8,0,0,1-3.691,3.694C437.722,123.733,434.364,123.723,431.007,123.723Z" transform="translate(-417.268 -88.575)" fill="#006e9d"/>
      <path id="Path_27648" data-name="Path 27648" d="M462.333,97.07q-7.783,0-15.566.01c-.4,0-.49-.092-.488-.489q.023-7.544,0-15.09c0-.4.094-.488.489-.488q15.566.018,31.132,0c.4,0,.49.092.488.488q-.023,7.545,0,15.09c0,.4-.093.489-.489.488Q470.115,97.057,462.333,97.07Z" transform="translate(-434.065 -74.911)" fill="#fff"/>
      <path id="Path_27649" data-name="Path 27649" d="M462.281,73.19q-7.759,0-15.518.01c-.4,0-.509-.09-.488-.489.036-.714.033-1.433,0-2.148-.016-.362.088-.44.442-.438q7.257.019,14.515.008,8.332,0,16.664-.01c.4,0,.509.09.488.489-.036.714-.033,1.433,0,2.148.016.362-.088.439-.442.438Q470.112,73.18,462.281,73.19Z" transform="translate(-434.062 -68.605)" fill="#fff"/>
      <path id="Path_27650" data-name="Path 27650" d="M501.693,126.239c0,1.018-.009,2.036.006,3.054,0,.267-.066.346-.339.344q-1.956-.021-3.912,0c-.264,0-.347-.062-.345-.337q.018-3.1,0-6.2c0-.259.054-.346.333-.35,1.2-.015,1.2-.026,1.2,1.148,0,.143-.007.287,0,.429a.741.741,0,0,0,.782.722.729.729,0,0,0,.738-.716c.018-.429.018-.859,0-1.288-.009-.231.066-.285.293-.293,1.241-.047,1.24-.054,1.24,1.2Z" transform="translate(-463.492 -99.066)" fill="#fff"/>
      <path id="Path_27651" data-name="Path 27651" d="M511.627,126.159c0-1.018.009-2.037-.006-3.055,0-.27.072-.339.341-.342,1.193-.014,1.193-.023,1.193,1.155,0,1.782-.008,3.565.008,5.347,0,.312-.079.393-.391.391-1.145-.007-1.145.005-1.145-1.156Z" transform="translate(-471.899 -99.081)" fill="#fff"/>
      <path id="Path_27652" data-name="Path 27652" d="M445.373,142.735a2.173,2.173,0,0,1-2,1.52c-.111.009-.222.008-.334.008q-9.688,0-19.377,0a2.369,2.369,0,0,1-2.3-1.313,1.665,1.665,0,0,1-.072-.217h.453c2.864,0,5.727.005,8.59-.008a.781.781,0,0,1,.693.309,1.229,1.229,0,0,0,1.127.472c.81-.032,1.623-.029,2.433,0a1.133,1.133,0,0,0,1.044-.436.9.9,0,0,1,.823-.344c2.816.013,5.632.008,8.447.008Z" transform="translate(-419.597 -110.643)" fill="#fff"/>
      <path id="Path_27653" data-name="Path 27653" d="M500.4,87.692c.45.157.881.275,1.28.46.181.083.016.279-.03.417q-1.32,3.987-2.645,7.972c-.272.819-.275.818-1.092.544a2.5,2.5,0,0,0-.315-.1c-.294-.056-.315-.2-.226-.467q1.426-4.244,2.835-8.5C500.249,87.9,500.264,87.746,500.4,87.692Z" transform="translate(-463.623 -78.777)" fill="#006e9d"/>
      <path id="Path_27654" data-name="Path 27654" d="M465.345,104.332c-1.384,0-2.769-.01-4.153.008-.312,0-.393-.079-.391-.39.007-1.146-.005-1.146,1.156-1.146,2.53,0,5.06.008,7.59-.009.356,0,.447.082.44.44-.022,1.1,0,1.1-1.11,1.1Z" transform="translate(-442.474 -87.522)" fill="#006e9d"/>
      <path id="Path_27655" data-name="Path 27655" d="M488.044,95.354a.7.7,0,0,1,.236-.551c.694-.7,1.394-1.393,2.087-2.094.132-.134.214-.161.379-.016.975.859.975.849.076,1.762-.3.3-.828.568-.812.929.014.309.513.6.8.893.022.023.046.044.067.068.239.272.767.553.689.78-.131.38-.573.652-.879.975-.142.15-.221.025-.3-.059q-1.064-1.061-2.122-2.127A.68.68,0,0,1,488.044,95.354Z" transform="translate(-458.246 -81.617)" fill="#006e9d"/>
      <path id="Path_27656" data-name="Path 27656" d="M512.246,95.351a.743.743,0,0,1-.254.6c-.685.687-1.374,1.369-2.053,2.062-.152.155-.253.185-.411,0-.271-.309-.753-.574-.792-.9-.029-.252.485-.567.757-.855s.765-.581.789-.9c.025-.333-.512-.586-.784-.893-.01-.012-.022-.022-.034-.034-.905-.905-.9-.9.091-1.756.136-.117.211-.139.343,0,.713.725,1.436,1.441,2.15,2.165A.631.631,0,0,1,512.246,95.351Z" transform="translate(-470.228 -81.611)" fill="#006e9d"/>
      <path id="Path_27657" data-name="Path 27657" d="M463.42,86.186c-.78,0-1.559-.008-2.339.005-.223,0-.29-.053-.3-.288-.05-1.246-.058-1.246,1.2-1.246s2.514.01,3.77-.007c.3,0,.4.065.4.385-.008,1.15.006,1.15-1.152,1.15Z" transform="translate(-442.454 -77.016)" fill="#006e9d"/>
      <path id="Path_27658" data-name="Path 27658" d="M473.982,95.263c-.652,0-1.305-.015-1.956.007-.281.009-.332-.09-.335-.349-.012-1.186-.021-1.186,1.161-1.186,1.018,0,2.036.008,3.054-.005.264,0,.385.023.386.347,0,1.186.017,1.186-1.164,1.186Z" transform="translate(-448.778 -82.273)" fill="#006e9d"/>
      <path id="Path_27659" data-name="Path 27659" d="M473.924,113.411c-.652,0-1.3-.01-1.956.005-.229.005-.285-.064-.294-.292-.048-1.242-.055-1.242,1.2-1.242,1.018,0,2.036.009,3.054-.006.27,0,.339.072.343.341.014,1.194.023,1.194-1.154,1.194Z" transform="translate(-448.761 -92.78)" fill="#006e9d"/>
      <path id="Path_27660" data-name="Path 27660" d="M462.363,93.731c.4,0,.8.018,1.192-.006.265-.016.305.088.31.324.025,1.21.032,1.21-1.183,1.21-.509,0-1.018-.011-1.527.005-.247.008-.357-.027-.361-.323-.017-1.21-.029-1.21,1.186-1.21Z" transform="translate(-442.468 -82.27)" fill="#006e9d"/>
      <path id="Path_27661" data-name="Path 27661" d="M462.366,111.883c.382,0,.764.013,1.145,0,.25-.012.354.035.357.325.016,1.207.028,1.207-1.188,1.207-.509,0-1.018-.012-1.527.005-.25.008-.354-.035-.357-.326-.017-1.207-.029-1.207,1.189-1.207Z" transform="translate(-442.469 -92.781)" fill="#006e9d"/>
      <path id="Path_27662" data-name="Path 27662" d="M451.019,86.179c-1.106,0-1.09,0-1.111-1.1-.006-.352.074-.466.438-.442.522.035,1.049.019,1.573,0,.226-.007.288.058.3.289C452.266,86.179,452.274,86.179,451.019,86.179Z" transform="translate(-436.167 -77.009)" fill="#006e9d"/>
      <path id="Path_27663" data-name="Path 27663" d="M478.3,86.187c-1.253,0-1.244,0-1.19-1.252.011-.244.093-.285.306-.28.573.013,1.146.017,1.717,0,.247-.008.307.091.277.3a.66.66,0,0,0,0,.1C479.422,86.187,479.422,86.187,478.3,86.187Z" transform="translate(-451.907 -77.017)" fill="#006e9d"/>
      <path id="Path_27664" data-name="Path 27664" d="M451.073,93.742c1.147,0,1.138,0,1.137,1.162,0,.28-.048.391-.359.374-.539-.029-1.081-.018-1.622,0-.236.007-.321-.044-.327-.308C449.873,93.742,449.863,93.742,451.073,93.742Z" transform="translate(-436.159 -82.28)" fill="#006e9d"/>
      <path id="Path_27665" data-name="Path 27665" d="M451.063,104.333c-1.158,0-1.145,0-1.152-1.148,0-.317.087-.4.394-.387.539.025,1.081.019,1.621,0,.234-.007.321.069.285.295a.258.258,0,0,0,0,.048C452.241,104.333,452.241,104.333,451.063,104.333Z" transform="translate(-436.169 -87.523)" fill="#006e9d"/>
      <path id="Path_27666" data-name="Path 27666" d="M451.076,111.892c1.153,0,1.144,0,1.143,1.156,0,.269-.03.4-.352.381a16.143,16.143,0,0,0-1.621,0c-.286.013-.329-.1-.332-.351C449.9,111.892,449.894,111.892,451.076,111.892Z" transform="translate(-436.169 -92.789)" fill="#006e9d"/>
      <path id="Path_27667" data-name="Path 27667" d="M449.645,72.7a.763.763,0,1,1-.761-.741A.746.746,0,0,1,449.645,72.7Z" transform="translate(-435.131 -69.671)" fill="#006e9d"/>
      <path id="Path_27668" data-name="Path 27668" d="M455.089,72.749a.764.764,0,1,1-.717-.786A.749.749,0,0,1,455.089,72.749Z" transform="translate(-438.283 -69.67)" fill="#006e9d"/>
      <path id="Path_27669" data-name="Path 27669" d="M460.534,72.732a.763.763,0,1,1-.734-.769A.746.746,0,0,1,460.534,72.732Z" transform="translate(-441.436 -69.67)" fill="#006e9d"/>
    </g>
  </g>
</svg>
