<svg xmlns="http://www.w3.org/2000/svg" xmlns:xlink="http://www.w3.org/1999/xlink" width="50" height="50" viewBox="0 0 50 50">
  <defs>
    <clipPath id="clip-path">
      <rect id="Rectangle_1692" data-name="Rectangle 1692" width="39.872" height="36.986" fill="#bd4040"/>
    </clipPath>
  </defs>
  <g id="backend" transform="translate(-14.227 -28.214)">
    <rect id="holder" width="50" height="50" transform="translate(14.227 28.214)" fill="#ff7d25" opacity="0"/>
    <g id="Group_229241" data-name="Group 229241" transform="translate(19.291 34.721)">
      <g id="Group_229240" data-name="Group 229240" clip-path="url(#clip-path)">
        <path id="Path_28582" data-name="Path 28582" d="M41.478,11.369A1.968,1.968,0,0,1,40.2,13.291q-8.323,3.7-16.619,7.455a3.959,3.959,0,0,1-3.494-.031q-8.26-3.761-16.557-7.441a2,2,0,0,1-1.286-1.931A2.154,2.154,0,0,1,3.4,9.294q8.33-4.4,16.661-8.8a3.747,3.747,0,0,1,3.807.052c5.423,2.914,10.874,5.777,16.33,8.63a2.2,2.2,0,0,1,1.283,2.192M4.753,11.243c.215.1.326.148.439.2q8.154,3.445,16.315,6.874a1.241,1.241,0,0,0,.858-.046q5.811-2.415,11.6-4.868c1.661-.7,3.319-1.407,5.04-2.137-.171-.105-.272-.175-.379-.232q-8.183-4.4-16.36-8.81a.765.765,0,0,0-.843.053q-4.888,2.641-9.785,5.266l-6.889,3.7" transform="translate(-1.971 -0.001)" fill="#bd4040"/>
        <path id="Path_28583" data-name="Path 28583" d="M.824,144.74c2.364,1.1,4.636,2.152,6.912,3.2,4.128,1.907,8.26,3.8,12.38,5.726a1.155,1.155,0,0,0,1.094-.025q9.448-4.42,18.907-8.816a2.177,2.177,0,0,1,.232-.078,3.01,3.01,0,0,1-1.772,3.431c-5.329,2.4-10.668,4.769-15.982,7.2a4.391,4.391,0,0,1-3.951-.009q-7.96-3.666-15.988-7.183a2.72,2.72,0,0,1-1.708-2.343c-.05-.344-.079-.692-.125-1.1" transform="translate(-0.722 -126.826)" fill="#bd4040"/>
        <path id="Path_28584" data-name="Path 28584" d="M39.872,207.926c-.267.972-.446,1.806-.739,2.6a1.466,1.466,0,0,1-.745.688q-8.462,3.83-16.942,7.622a3.639,3.639,0,0,1-3.154-.033c-5.566-2.521-11.15-5-16.711-7.534a2.126,2.126,0,0,1-1-1.009,15.17,15.17,0,0,1-.58-2.3c1.623.76,3.067,1.446,4.519,2.116q7.426,3.428,14.851,6.857a1.154,1.154,0,0,0,1.1,0q9.449-4.421,18.912-8.812c.09-.042.185-.073.5-.195" transform="translate(0 -182.191)" fill="#bd4040"/>
      </g>
    </g>
  </g>
</svg>
