<svg xmlns="http://www.w3.org/2000/svg" xmlns:xlink="http://www.w3.org/1999/xlink" width="50" height="50" viewBox="0 0 50 50">
  <defs>
    <clipPath id="clip-path">
      <rect id="Rectangle_3638" data-name="Rectangle 3638" width="31.562" height="42.8" fill="none"/>
    </clipPath>
  </defs>
  <g id="Group_229760" data-name="Group 229760" transform="translate(-512.499 -1168.993)">
    <rect id="holder" width="50" height="50" transform="translate(512.499 1168.993)" fill="#ff7d25" opacity="0"/>
    <g id="java" transform="translate(521.718 1172.593)">
      <g id="Group_229758" data-name="Group 229758" transform="translate(0 0)" clip-path="url(#clip-path)">
        <path id="Path_280444" data-name="Path 280444" d="M10.194,34.82s-1.644,1,1.144,1.287a23.449,23.449,0,0,0,8.861-.357,13.525,13.525,0,0,0,2.359,1.144C14.2,40.466,3.62,36.68,10.195,34.821ZM9.122,30.175s-1.786,1.358,1,1.644a33.826,33.826,0,0,0,11.435-.571,4.348,4.348,0,0,0,1.715,1.072c-10.077,3-21.368.286-14.15-2.144Zm19.725,8.147s1.215,1-1.358,1.786c-4.788,1.429-20.082,1.858-24.37,0-1.5-.642,1.358-1.582,2.287-1.715a7.148,7.148,0,0,1,1.429-.214C5.192,37.035-4.1,40.538,2.118,41.529c17.08,2.787,31.158-1.215,26.728-3.216ZM10.979,25.315s-7.79,1.858-2.788,2.5a62.2,62.2,0,0,0,10.291-.072c3.216-.286,6.432-.858,6.432-.858a17.211,17.211,0,0,0-1.93,1c-7.933,2.072-23.155,1.144-18.795-1A14.924,14.924,0,0,1,10.979,25.3ZM24.915,33.1c8-4.145,4.287-8.147,1.715-7.646a4.588,4.588,0,0,0-.93.286,1.226,1.226,0,0,1,.715-.571c5.074-1.786,9.076,5.359-1.644,8.147a.891.891,0,0,0,.143-.214ZM11.766,44.4c7.718.5,19.511-.286,19.8-3.93,0,0-.571,1.429-6.36,2.5a64.326,64.326,0,0,1-19.511.286s1,.858,6.076,1.144Z" transform="translate(0 -1.732)" fill="#4e7896"/>
        <path id="Path_280445" data-name="Path 280445" d="M20.817,0S25.248,4.5,16.6,11.292c-6.932,5.5-1.582,8.647,0,12.22-4.073-3.645-7-6.86-5-9.863C14.529,9.219,22.6,7.075,20.817,0ZM18.53,20.51c2.072,2.359-.572,4.5-.572,4.5s5.289-2.717,2.858-6.076C18.6,15.722,16.886,14.15,26.176,8.79c0,0-14.651,3.645-7.646,11.72Z" transform="translate(-0.762 0)" fill="#f58219"/>
      </g>
    </g>
  </g>
</svg>
