<svg xmlns="http://www.w3.org/2000/svg" xmlns:xlink="http://www.w3.org/1999/xlink" width="50" height="50" viewBox="0 0 50 50">
  <defs>
    <clipPath id="clip-path">
      <rect id="Rectangle_1693" data-name="Rectangle 1693" width="40.334" height="40.333" fill="#008be7"/>
    </clipPath>
  </defs>
  <g id="cloud_dev" data-name="cloud dev" transform="translate(87.973 58.986)">
    <rect id="holder" width="50" height="50" transform="translate(-87.973 -58.986)" fill="#ff7d25" opacity="0"/>
    <g id="Group_229248" data-name="Group 229248" transform="translate(-83.14 -53.652)">
      <g id="Group_229248-2" data-name="Group 229248" clip-path="url(#clip-path)">
        <path id="Path_28585" data-name="Path 28585" d="M30.922,22.871V23.4q0,6.659,0,13.317A3.378,3.378,0,0,1,27.3,40.332q-7.142,0-14.284,0a3.375,3.375,0,0,1-3.6-3.6q0-5.986,0-11.973V24.2c-.347,0-.676,0-1.005,0a.7.7,0,0,1-.8-.631c-.018-.067-.03-.136-.044-.2C7.281,22.021,7.283,22.017,6,21.5a.487.487,0,0,0-.373.04c-.4.233-.783.489-1.17.741a.7.7,0,0,1-.981-.114q-.723-.732-1.456-1.455a.7.7,0,0,1-.1-.982c.223-.339.438-.683.657-1.025a2,2,0,0,0,.132-.214,2.746,2.746,0,0,0-.773-1.618c-.449-.107-.9-.207-1.349-.308A.687.687,0,0,1,0,15.819Q0,14.79,0,13.76A.7.7,0,0,1,.625,13a12.78,12.78,0,0,0,1.264-.3.937.937,0,0,0,.387-.35c.081-.107.083-.274.162-.383.414-.571.224-1.034-.147-1.562C1.546,9.339,1.576,9.318,2.5,8.39c.326-.328.655-.652.977-.983a.7.7,0,0,1,.98-.115c.376.244.745.5,1.137.713a.825.825,0,0,0,.483.032c.132-.02.249-.143.382-.165.716-.115.965-.589,1.02-1.245a3.735,3.735,0,0,1,.163-.736.663.663,0,0,1,.764-.5.64.64,0,0,1,.528.743C8.8,6.862,8.658,7.591,8.46,8.3a.93.93,0,0,1-.5.451c-.579.273-1.185.49-1.768.756a.8.8,0,0,1-.831-.04A9.959,9.959,0,0,1,4.487,8.9c-.288-.235-.477-.172-.693.089a4.517,4.517,0,0,1-.532.467c.281.437.516.828.777,1.2a.9.9,0,0,1,.047,1.015,12.862,12.862,0,0,0-.656,1.582.888.888,0,0,1-.724.663c-.45.086-.895.2-1.349.3v1.139c.476.11.947.23,1.422.327a.814.814,0,0,1,.632.595c.214.574.45,1.141.708,1.7a.816.816,0,0,1-.034.869c-.216.326-.414.666-.639.986a.306.306,0,0,0,.045.463c.6.625.594.632,1.3.178a1.329,1.329,0,0,0,.175-.115,1.2,1.2,0,0,1,1.632-.08,4.258,4.258,0,0,0,1.2.474.912.912,0,0,1,.743.8c.07.427.178.847.272,1.286h.567v-4a4.122,4.122,0,0,1-3.033-1.423,4.006,4.006,0,0,1,.739-5.9.946.946,0,0,1,.731-.093.673.673,0,0,1,.365.534,1.144,1.144,0,0,1-.394.678,2.738,2.738,0,0,0-1.068,2.308,2.664,2.664,0,0,0,2.682,2.519v-.493q0-6.68,0-13.359A3.373,3.373,0,0,1,13.006,0q7.163,0,14.325,0a3.373,3.373,0,0,1,3.59,3.607q0,5.987,0,11.973v.553c.341,0,.658,0,.975,0a.726.726,0,0,1,.846.683c.094.409.159.826.279,1.226a.748.748,0,0,0,.323.36c.175.109.407.131.575.247a.881.881,0,0,0,1.194-.1,7.133,7.133,0,0,1,.809-.525.659.659,0,0,1,.881.091q.781.763,1.545,1.544a.672.672,0,0,1,.08.916c-.249.389-.512.77-.737,1.172a.713.713,0,0,0-.026.447c.029.146.157.274.182.42.115.695.579.894,1.212,1.01,1.28.235,1.273.268,1.273,1.576,0,.448,0,.9,0,1.344a.7.7,0,0,1-.635.8l-.2.052a3.412,3.412,0,0,0-1.306.366c-.306.253-.391.783-.547,1.2a.49.49,0,0,0,.04.371c.234.4.493.78.745,1.168a.69.69,0,0,1-.1.95q-.738.747-1.48,1.491a.7.7,0,0,1-.983.1c-.339-.223-.683-.438-1.025-.657a1.915,1.915,0,0,0-.214-.133,2.718,2.718,0,0,0-1.613.781c-.1.436-.185.876-.291,1.31a.689.689,0,0,1-.808.606.676.676,0,0,1-.5-.878c.124-.645.243-1.294.429-1.923a1.024,1.024,0,0,1,.495-.547,14.867,14.867,0,0,1,1.812-.756,1.182,1.182,0,0,1,.78.03,5.968,5.968,0,0,1,1.03.643.3.3,0,0,0,.462-.053c.192-.2.419-.369.646-.564-.293-.458-.528-.851-.789-1.226a.874.874,0,0,1-.054-.978,15.794,15.794,0,0,0,.674-1.62.859.859,0,0,1,.692-.64c.453-.085.9-.2,1.369-.3v-1.16c-.448-.1-.893-.209-1.344-.294a.885.885,0,0,1-.722-.665,12.731,12.731,0,0,0-.656-1.582.887.887,0,0,1,.049-1.015c.21-.3.384-.619.6-.915.135-.188.1-.3-.055-.462-.6-.619-.592-.625-1.3-.17-.165.106-.336.2-.494.319a.872.872,0,0,1-1.015.025,9.743,9.743,0,0,0-1.5-.626.94.94,0,0,1-.737-.805c-.072-.426-.178-.846-.272-1.279h-.569v3.983c.224.034.454.064.683.1a3.98,3.98,0,0,1,3.218,3.049,3.9,3.9,0,0,1-1.51,4.128,1.045,1.045,0,0,1-.685.211A.641.641,0,0,1,32.3,27.9a3.2,3.2,0,0,1,.352-.3,2.676,2.676,0,0,0-1.728-4.728M10.756,20.142q0,8.317,0,16.634a2.031,2.031,0,0,0,2.225,2.211q7.183,0,14.365,0a2.037,2.037,0,0,0,2.231-2.249q0-16.571,0-33.141a2.041,2.041,0,0,0-2.268-2.253H13.028a2.047,2.047,0,0,0-2.272,2.29q0,8.254,0,16.508" transform="translate(0 0.001)" fill="#008be7"/>
        <path id="Path_28586" data-name="Path 28586" d="M300.106,47.938a.676.676,0,0,1,.658.672.741.741,0,0,1-.7.737.632.632,0,0,1-.637-.676.681.681,0,0,1,.682-.734" transform="translate(-265.813 -42.557)" fill="#008be7"/>
        <path id="Path_28587" data-name="Path 28587" d="M299.424,72.624a.671.671,0,1,1,1.34-.059.741.741,0,0,1-.7.736.632.632,0,0,1-.637-.677" transform="translate(-265.813 -63.821)" fill="#008be7"/>
        <path id="Path_28588" data-name="Path 28588" d="M299.422,96.553a.671.671,0,1,1,1.34-.021.738.738,0,0,1-.723.715.632.632,0,0,1-.618-.694" transform="translate(-265.811 -85.081)" fill="#008be7"/>
        <path id="Path_28589" data-name="Path 28589" d="M47.913,251.06a.671.671,0,1,1,1.34-.012.715.715,0,0,1-.727.7.614.614,0,0,1-.613-.688" transform="translate(-42.534 -222.25)" fill="#008be7"/>
        <path id="Path_28590" data-name="Path 28590" d="M47.913,275.013a.671.671,0,1,1,1.34-.011.715.715,0,0,1-.727.7.616.616,0,0,1-.613-.689" transform="translate(-42.534 -243.514)" fill="#008be7"/>
        <path id="Path_28591" data-name="Path 28591" d="M48.547,299.654a.616.616,0,0,1-.632-.671.672.672,0,1,1,1.341-.049.72.72,0,0,1-.709.72" transform="translate(-42.536 -264.776)" fill="#008be7"/>
        <path id="Path_28592" data-name="Path 28592" d="M121.321,153.078l1.9,1.9c.109.109.224.213.322.33a.669.669,0,0,1-.961.932c-.188-.166-.358-.354-.536-.532-.683-.682-1.368-1.362-2.047-2.049a.7.7,0,0,1,.007-1.156q1.241-1.251,2.493-2.493a.681.681,0,1,1,.951.948c-.69.694-1.389,1.379-2.133,2.117" transform="translate(-106.262 -132.92)" fill="#008be7"/>
        <path id="Path_28593" data-name="Path 28593" d="M206,153l-1.977-1.952a3.2,3.2,0,0,1-.262-.272.656.656,0,0,1,.028-.912.627.627,0,0,1,.908-.026q1.4,1.361,2.758,2.762a.609.609,0,0,1-.043.908q-1.324,1.348-2.673,2.67a.649.649,0,0,1-.944.014.657.657,0,0,1,.014-.973c.614-.633,1.244-1.249,1.866-1.874.1-.1.188-.2.325-.345" transform="translate(-180.737 -132.854)" fill="#008be7"/>
        <path id="Path_28594" data-name="Path 28594" d="M170.566,150.471c-.093.369-.206.816-.317,1.262q-.5,2.011-1.007,4.021c-.131.517-.446.76-.841.664-.42-.1-.585-.461-.45-1q.635-2.56,1.277-5.118a.673.673,0,0,1,.755-.572.707.707,0,0,1,.582.749" transform="translate(-149.058 -132.909)" fill="#008be7"/>
        <path id="Path_28595" data-name="Path 28595" d="M158.38,25.283c-.63,0-1.26.006-1.89,0a.681.681,0,0,1-.762-.662.673.673,0,0,1,.744-.678q1.932-.01,3.864,0a.678.678,0,0,1,.762.661c.006.407-.3.675-.787.68-.644.006-1.288,0-1.932,0" transform="translate(-138.247 -21.25)" fill="#008be7"/>
      </g>
    </g>
  </g>
</svg>
