<svg xmlns="http://www.w3.org/2000/svg" width="50" height="50" viewBox="0 0 50 50">
  <g id="Group_229760" data-name="Group 229760" transform="translate(-505.499 -1168.993)">
    <rect id="holder" width="50" height="50" transform="translate(505.499 1168.993)" fill="#ff7d25" opacity="0"/>
    <g id="php-logo" transform="translate(506.499 1181.993)">
      <path id="Path_282656" data-name="Path 282656" d="M3.64,10.123h6.822a5.279,5.279,0,0,1,4.353,1.731,5.8,5.8,0,0,1,.891,4.658,8.935,8.935,0,0,1-.789,2.647A7.87,7.87,0,0,1,13.288,21.5a5.686,5.686,0,0,1-2.724,1.68,12.541,12.541,0,0,1-3,.356H4.506l-.967,4.837H0L3.64,10.123h0m2.978,2.9L5.091,20.662a1.873,1.873,0,0,0,.305.025h.356A13.385,13.385,0,0,0,9.826,20.2q1.629-.535,2.189-3.717.458-2.673-.916-3.08a11.423,11.423,0,0,0-3.386-.382q-.305.025-.585.025H6.593l.025-.025" transform="translate(0 -5.261)"/>
      <path id="Path_282657" data-name="Path 282657" d="M37.127,0h3.513l-.993,4.862H42.8a6.338,6.338,0,0,1,3.869,1.069q1.3,1.018.764,3.869l-1.706,8.477H42.167L43.8,10.182a2.3,2.3,0,0,0-.153-1.807,2.163,2.163,0,0,0-1.756-.535l-2.826-.025L36.974,18.277H33.461L37.127,0h0" transform="translate(-17.39)"/>
      <path id="Path_282658" data-name="Path 282658" d="M66.473,10.123H73.3a5.279,5.279,0,0,1,4.353,1.731,5.8,5.8,0,0,1,.891,4.658,8.935,8.935,0,0,1-.789,2.647A7.87,7.87,0,0,1,76.121,21.5a5.686,5.686,0,0,1-2.724,1.68,12.541,12.541,0,0,1-3,.356H67.339l-.967,4.837H62.833l3.64-18.252h0m2.978,2.9-1.527,7.637a1.873,1.873,0,0,0,.305.025h.356a13.385,13.385,0,0,0,4.073-.484q1.629-.535,2.189-3.717.458-2.673-.916-3.08a11.423,11.423,0,0,0-3.386-.382q-.305.025-.585.025h-.535l.025-.025" transform="translate(-32.655 -5.261)"/>
    </g>
  </g>
</svg>
