<svg xmlns="http://www.w3.org/2000/svg" width="50.767" height="50" viewBox="0 0 50.767 50">
  <g id="Group_229760" data-name="Group 229760" transform="translate(-498.499 -1169.993)">
    <rect id="holder" width="50" height="50" transform="translate(498.499 1169.993)" fill="#ff7d25" opacity="0"/>
    <g id="Group_233310" data-name="Group 233310" transform="translate(804.099 1175.025)">
      <g id="Group_233310-2" data-name="Group 233310" transform="translate(-303.454 5.857)">
        <path id="Path_282756" data-name="Path 282756" d="M-298.7,36.391h16.172s-3.088-14.131,7.17-19.836c2.251-1.1,9.316-5.129,20.987,3.454.366-.314.733-.576.733-.576s-10.624-10.624-22.5-9.421c-5.966.523-13.294,5.966-17.585,13.137A35.321,35.321,0,0,0-298.7,36.391Z" transform="translate(300.165 -7.868)" fill="#c00" fill-rule="evenodd"/>
        <path id="Path_282757" data-name="Path 282757" d="M-298.7,36.391h16.172s-3.088-14.131,7.17-19.836c2.251-1.1,9.316-5.129,20.987,3.454.366-.314.733-.576.733-.576s-10.624-10.624-22.5-9.421c-5.966.523-13.294,5.966-17.585,13.137A35.321,35.321,0,0,0-298.7,36.391Z" transform="translate(300.165 -7.868)" fill="#c00" fill-rule="evenodd"/>
        <path id="Path_282758" data-name="Path 282758" d="M-298.7,35.62h16.172s-3.088-14.131,7.17-19.836c2.251-1.1,9.316-5.129,20.987,3.454.366-.314.733-.576.733-.576s-10.624-10.624-22.5-9.421c-5.966.523-13.294,5.966-17.638,13.137A34.6,34.6,0,0,0-298.7,35.62Zm33.705-25.226.1-1.361a9.42,9.42,0,0,0-1.989-.733l-.1,1.361C-266.3,9.87-265.675,10.132-264.995,10.393Z" transform="translate(300.165 -7.096)" fill="#c00" fill-rule="evenodd"/>
        <path id="Path_282759" data-name="Path 282759" d="M-268.266,13.641l-.1,1.308a9.093,9.093,0,0,1,2.041.262l.1-1.256A10.212,10.212,0,0,0-268.266,13.641Zm-7.589-6.385h.209L-276.064,6c-.628,0-1.308.052-1.989.1l.366,1.2C-277.059,7.256-276.431,7.256-275.855,7.256Zm.994,7.537.471,1.413c.576-.262,1.2-.523,1.779-.733l-.471-1.361C-273.761,14.322-274.337,14.583-274.86,14.793ZM-284.176,9.4l-.942-1.413c-.523.262-1.047.576-1.622.89l.942,1.413C-285.223,9.978-284.7,9.664-284.176,9.4Zm4.187,9.211.994,1.465a10.525,10.525,0,0,1,1.2-1.465l-.942-1.413C-279.152,17.671-279.623,18.142-279.989,18.613Zm-2.931,6.594,1.675,1.308a19.32,19.32,0,0,1,.419-2.408l-1.465-1.151A13.278,13.278,0,0,0-282.92,25.208Zm-9-9.735-1.465-1.256-1.518,1.518,1.57,1.361C-292.864,16.572-292.393,16-291.922,15.473Zm-6.176,9.159-2.355-.837c-.366.89-.837,1.884-1.047,2.46l2.355.837C-298.831,26.411-298.412,25.417-298.1,24.632Zm14.864,5.809a20.6,20.6,0,0,0,.262,2.565l2.46.89a17.534,17.534,0,0,1-.471-2.669Z" transform="translate(301.5 -6)" fill="#c00" fill-rule="evenodd"/>
      </g>
      <rect id="Rectangle_4775" data-name="Rectangle 4775" width="50.767" height="28.785" transform="translate(-305.6 5.7)" fill="none"/>
    </g>
  </g>
</svg>
