<svg xmlns="http://www.w3.org/2000/svg" width="50" height="50" viewBox="0 0 50 50">
  <g id="Group_229760" data-name="Group 229760" transform="translate(-510.499 -1178.993)">
    <rect id="holder" width="50" height="50" transform="translate(510.499 1178.993)" fill="#ff7d25" opacity="0"/>
    <g id="Salesforce.com_logo" transform="translate(513.959 1187.795)">
      <path id="Path_282683" data-name="Path 282683" d="M17.811,3.859A7.6,7.6,0,0,1,23.31,1.5a7.68,7.68,0,0,1,6.695,3.969,9.245,9.245,0,0,1,3.778-.8,9.437,9.437,0,1,1-1.849,18.69,6.833,6.833,0,0,1-8.958,2.818,7.795,7.795,0,0,1-14.49-.351A7.189,7.189,0,0,1,7,25.977,7.279,7.279,0,0,1-.24,18.66a7.353,7.353,0,0,1,3.618-6.344A8.425,8.425,0,0,1,17.812,3.868" transform="translate(0)" fill="#00a1e0" fill-rule="evenodd"/>
      <path id="Path_282684" data-name="Path 282684" d="M39.348,80.61c-.027.071.01.086.018.1a2.743,2.743,0,0,0,.247.15,2.65,2.65,0,0,0,1.3.3c.889,0,1.443-.473,1.443-1.235v-.015c0-.7-.625-.961-1.208-1.145l-.076-.025c-.442-.143-.823-.268-.823-.558v-.015c0-.249.223-.432.567-.432a2.57,2.57,0,0,1,1.13.289s.086.056.118-.028c.017-.045.166-.443.182-.488a.082.082,0,0,0-.043-.1,2.519,2.519,0,0,0-1.275-.343h-.089a1.244,1.244,0,0,0-1.384,1.2v.015c0,.743.628.985,1.215,1.152l.094.029c.427.131.8.245.8.545v.015c0,.276-.241.481-.626.481a2.1,2.1,0,0,1-1.146-.33c-.063-.037-.1-.063-.147-.092a.071.071,0,0,0-.117.04l-.175.488m13.023,0c-.027.071.01.086.019.1a2.7,2.7,0,0,0,.247.15,2.65,2.65,0,0,0,1.3.3c.889,0,1.443-.473,1.443-1.235V79.91c0-.7-.623-.961-1.208-1.145l-.076-.025c-.442-.143-.823-.268-.823-.558v-.015c0-.249.223-.432.567-.432a2.576,2.576,0,0,1,1.13.289s.086.056.118-.028c.017-.045.166-.443.18-.488a.082.082,0,0,0-.043-.1,2.519,2.519,0,0,0-1.275-.343h-.089a1.244,1.244,0,0,0-1.384,1.2v.015c0,.743.628.985,1.215,1.152l.094.029c.429.131.8.245.8.545v.015c0,.276-.241.481-.626.481a2.1,2.1,0,0,1-1.146-.33c-.063-.037-.1-.062-.147-.092a.076.076,0,0,0-.117.04l-.175.488m8.895-1.492a1.846,1.846,0,0,1-.238,1.011.915.915,0,0,1-1.444,0,2.286,2.286,0,0,1,0-2.016.79.79,0,0,1,.72-.349.8.8,0,0,1,.724.349,1.813,1.813,0,0,1,.238,1.006m.743-.8a1.794,1.794,0,0,0-.338-.646,1.618,1.618,0,0,0-.571-.434,2.072,2.072,0,0,0-1.594,0,1.639,1.639,0,0,0-.571.434,1.8,1.8,0,0,0-.338.646,2.971,2.971,0,0,0,0,1.6,1.789,1.789,0,0,0,.338.646,1.606,1.606,0,0,0,.571.43,2.111,2.111,0,0,0,1.592,0,1.6,1.6,0,0,0,.571-.43A1.8,1.8,0,0,0,62,79.916a2.975,2.975,0,0,0,0-1.6m6.105,2.04a.071.071,0,0,0-.095-.045,1.7,1.7,0,0,1-.346.1,2.647,2.647,0,0,1-.406.029,1.13,1.13,0,0,1-.85-.319,1.416,1.416,0,0,1-.319-1.015,1.576,1.576,0,0,1,.285-.979.972.972,0,0,1,.824-.363,2.493,2.493,0,0,1,.786.112s.058.025.086-.051c.065-.18.113-.309.183-.507a.067.067,0,0,0-.046-.087,2.893,2.893,0,0,0-.5-.125,3.74,3.74,0,0,0-.558-.037,2.021,2.021,0,0,0-.827.159,1.712,1.712,0,0,0-.6.434,1.842,1.842,0,0,0-.362.646,2.566,2.566,0,0,0-.121.8,2.14,2.14,0,0,0,.494,1.479,1.876,1.876,0,0,0,1.467.552,3.012,3.012,0,0,0,1.052-.188.068.068,0,0,0,.03-.088l-.183-.5m1.3-1.658a1.447,1.447,0,0,1,.2-.593.8.8,0,0,1,.719-.365.78.78,0,0,1,.7.365,1.231,1.231,0,0,1,.166.593H69.4Zm2.5-.526a1.575,1.575,0,0,0-.322-.588,1.469,1.469,0,0,0-.478-.363,1.833,1.833,0,0,0-.721-.146,1.977,1.977,0,0,0-.83.161,1.656,1.656,0,0,0-.579.442,1.816,1.816,0,0,0-.341.654,2.825,2.825,0,0,0-.11.8,2.712,2.712,0,0,0,.114.8,1.616,1.616,0,0,0,1,1.058,2.521,2.521,0,0,0,.913.148,2.607,2.607,0,0,0,1.266-.252c.028-.016.054-.043.021-.12l-.164-.461a.073.073,0,0,0-.095-.044,2.408,2.408,0,0,1-1.033.187A1.029,1.029,0,0,1,69.4,79.321l2.519,0a.074.074,0,0,0,.073-.065,2.69,2.69,0,0,0-.075-1.082ZM49.277,78.7a1.449,1.449,0,0,1,.2-.593.8.8,0,0,1,.719-.365.78.78,0,0,1,.7.365,1.235,1.235,0,0,1,.166.593h-1.8Zm2.5-.526a1.573,1.573,0,0,0-.322-.588,1.469,1.469,0,0,0-.478-.363,1.833,1.833,0,0,0-.72-.146,1.977,1.977,0,0,0-.83.161,1.656,1.656,0,0,0-.579.442,1.821,1.821,0,0,0-.341.654,2.831,2.831,0,0,0-.11.8,2.7,2.7,0,0,0,.114.8,1.609,1.609,0,0,0,1,1.058,2.515,2.515,0,0,0,.913.148,2.607,2.607,0,0,0,1.266-.252c.028-.016.054-.043.021-.12l-.164-.461a.073.073,0,0,0-.095-.044,2.408,2.408,0,0,1-1.033.187,1.029,1.029,0,0,1-1.152-1.133l2.519,0a.074.074,0,0,0,.073-.065,2.688,2.688,0,0,0-.075-1.082Zm-7.938,2.168a.491.491,0,0,1-.145-.149.6.6,0,0,1-.075-.327.55.55,0,0,1,.225-.486,1.131,1.131,0,0,1,.73-.182,5.1,5.1,0,0,1,.682.058V80.4h0a5.083,5.083,0,0,1-.679.09,1.129,1.129,0,0,1-.736-.147Zm1-1.769c-.1-.008-.234-.011-.392-.011a2.374,2.374,0,0,0-.618.079,1.612,1.612,0,0,0-.524.244,1.173,1.173,0,0,0-.5.995,1.311,1.311,0,0,0,.115.574,1.043,1.043,0,0,0,.328.394,1.376,1.376,0,0,0,.512.222,3.01,3.01,0,0,0,.666.068,4.605,4.605,0,0,0,.764-.064q.318-.055.633-.123c.084-.019.177-.045.177-.045a.079.079,0,0,0,.057-.082v-2.3a1.4,1.4,0,0,0-.4-1.109,1.71,1.71,0,0,0-1.154-.348,4.144,4.144,0,0,0-.674.062,2.422,2.422,0,0,0-.775.284.078.078,0,0,0-.023.1l.179.478a.064.064,0,0,0,.083.041.323.323,0,0,0,.041-.021,2.551,2.551,0,0,1,1.1-.255,1.016,1.016,0,0,1,.622.163c.137.105.207.265.207.6v.106c-.215-.031-.414-.049-.414-.049Zm20.244-1.3a.068.068,0,0,0-.038-.091,2.214,2.214,0,0,0-.421-.072,1.248,1.248,0,0,0-.649.1,1.115,1.115,0,0,0-.424.314v-.306a.073.073,0,0,0-.072-.076h-.644a.073.073,0,0,0-.072.076v3.746a.077.077,0,0,0,.076.076h.66a.076.076,0,0,0,.076-.076V79.093a2.205,2.205,0,0,1,.083-.66.946.946,0,0,1,.22-.37.763.763,0,0,1,.311-.187,1.224,1.224,0,0,1,.338-.048,1.413,1.413,0,0,1,.276.034c.048.005.075-.024.092-.068.043-.115.166-.459.19-.528" transform="translate(-33.269 -64.317)" fill="#fffffe" fill-rule="evenodd"/>
      <path id="Path_282685" data-name="Path 282685" d="M98.684,67.1a2.113,2.113,0,0,0-.249-.059,1.948,1.948,0,0,0-.342-.026,1.44,1.44,0,0,0-1.065.382,2.078,2.078,0,0,0-.505,1.14l-.031.17h-.571a.084.084,0,0,0-.084.073l-.094.523c-.007.05.015.081.082.081h.556l-.564,3.147a3.952,3.952,0,0,1-.151.62,1.271,1.271,0,0,1-.175.358.466.466,0,0,1-.23.178.932.932,0,0,1-.3.043,1.145,1.145,0,0,1-.2-.022.6.6,0,0,1-.136-.044.069.069,0,0,0-.091.04c-.021.053-.169.461-.187.511a.075.075,0,0,0,.039.1,1.879,1.879,0,0,0,.23.067,1.518,1.518,0,0,0,.368.035,1.838,1.838,0,0,0,.617-.1,1.156,1.156,0,0,0,.465-.324,1.667,1.667,0,0,0,.327-.562,4.8,4.8,0,0,0,.221-.845l.567-3.205h.828a.085.085,0,0,0,.084-.073l.094-.523c.007-.05-.015-.081-.082-.081h-.8a3.413,3.413,0,0,1,.133-.567.73.73,0,0,1,.176-.268.522.522,0,0,1,.211-.131.874.874,0,0,1,.27-.039,1.051,1.051,0,0,1,.207.021c.078.017.108.025.129.031.082.025.093,0,.109-.039l.192-.528a.067.067,0,0,0-.046-.088M87.45,72.535a.073.073,0,0,1-.072.076h-.667a.073.073,0,0,1-.072-.076V67.168a.073.073,0,0,1,.072-.076h.667a.073.073,0,0,1,.072.076v5.367" transform="translate(-73.03 -55.865)" fill="#fffffe" fill-rule="evenodd"/>
    </g>
  </g>
</svg>
