<svg id="Group_229760" data-name="Group 229760" xmlns="http://www.w3.org/2000/svg" xmlns:xlink="http://www.w3.org/1999/xlink" width="49.691" height="50" viewBox="0 0 49.691 50">
  <defs>
    <clipPath id="clip-path">
      <rect id="Rectangle_4776" data-name="Rectangle 4776" width="44.387" height="50" fill="none"/>
    </clipPath>
  </defs>
  <rect id="holder" width="49.691" height="49.691" fill="#ff7d25" opacity="0"/>
  <g id="Group_233313" data-name="Group 233313" transform="translate(3)">
    <g id="Group_233312" data-name="Group 233312" clip-path="url(#clip-path)">
      <path id="Path_282761" data-name="Path 282761" d="M38.884,9.64a.5.5,0,0,0-.446-.414c-.178-.029-3.748-.059-3.748-.059s-3-2.9-3.3-3.193a1.255,1.255,0,0,0-1.1-.148S29.721,6,28.769,6.3a9.823,9.823,0,0,0-.714-1.744c-1.071-2.04-2.618-3.1-4.522-3.1a1.7,1.7,0,0,0-.387.03,1.285,1.285,0,0,1-.178-.207A3.958,3.958,0,0,0,19.844,0C17.4.06,14.995,1.8,13,4.939a19.193,19.193,0,0,0-2.737,7.067c-2.8.857-4.76,1.449-4.79,1.478-1.4.443-1.458.473-1.636,1.8C3.69,16.263,0,44.678,0,44.678L30.971,50l13.417-3.312S38.914,9.877,38.884,9.64M27.222,6.772c-.714.207-1.517.473-2.41.739a13.8,13.8,0,0,0-.744-4.406c1.874.355,2.767,2.425,3.154,3.666M23.206,8.014c-1.636.5-3.391,1.035-5.176,1.6a12.3,12.3,0,0,1,2.618-5.027A5.255,5.255,0,0,1,22.4,3.313a11.526,11.526,0,0,1,.8,4.7M19.874,1.628a2.618,2.618,0,0,1,1.458.384,6.639,6.639,0,0,0-1.9,1.479,14.079,14.079,0,0,0-3.213,6.682c-1.487.443-2.915.887-4.254,1.3.893-3.9,4.165-9.728,7.914-9.846" transform="translate(-0.001 0)" fill="#95bf47"/>
      <path id="Path_282762" data-name="Path 282762" d="M179.736,35.873c-.179-.029-3.748-.059-3.748-.059s-3-2.9-3.3-3.193a.589.589,0,0,0-.417-.177v44.2l13.417-3.312s-5.474-36.782-5.5-37.048a.53.53,0,0,0-.446-.414" transform="translate(-141.299 -26.646)" fill="#5e8e3e"/>
      <path id="Path_282763" data-name="Path 282763" d="M61.13,87.764l-1.547,5.8a8.6,8.6,0,0,0-3.808-.651c-3.035.177-3.064,2.07-3.035,2.572.179,2.6,7.021,3.164,7.408,9.225.3,4.79-2.559,8.042-6.664,8.309a10.064,10.064,0,0,1-7.646-2.573l1.041-4.406s2.737,2.04,4.909,1.922a1.909,1.909,0,0,0,1.874-2.07c-.208-3.371-5.8-3.193-6.158-8.722-.3-4.672,2.8-9.4,9.609-9.846A7.987,7.987,0,0,1,61.13,87.764Z" transform="translate(-37.598 -71.678)" fill="#fff"/>
    </g>
  </g>
</svg>
