<svg xmlns="http://www.w3.org/2000/svg" width="50" height="50" viewBox="0 0 50 50">
  <g id="rpa" transform="translate(-14.027 -28.014)">
    <rect id="holder" width="50" height="50" transform="translate(14.027 28.014)" fill="#ff7d25" opacity="0"/>
    <g id="icon" transform="translate(17.027 33.014)">
      <path id="Path_27995" data-name="Path 27995" d="M125.206,482.591c-.173.4-.348.8-.519,1.2a1.027,1.027,0,0,1-1.406.629.482.482,0,0,0-.4.024c-.07.07-.057.273-.016.4a1,1,0,0,1-.618,1.406c-.349.153-.7.3-1.055.44a.972.972,0,0,1-1.338-.525,1.783,1.783,0,0,0-.306-.343c-.107.106-.256.194-.312.322a1.179,1.179,0,0,1-1.134.685c0,.433-.017.853.011,1.269.008.119.129.241.221.341.2.218.426.415.624.636a1.242,1.242,0,0,1-.032,1.79c-.264.275-.544.534-.819.8.172.432.32.84.5,1.234a.406.406,0,0,0,.3.156c.31.021.622,0,.933.011a1.265,1.265,0,0,1,1.284,1.338q.007,1.231,0,2.462a1.206,1.206,0,0,1-1.327,1.315,1.234,1.234,0,0,0-1.563,1.042c-.07.267-.1.428.121.615a5.425,5.425,0,0,1,.627.632,1.2,1.2,0,0,1-.008,1.692q-.929.99-1.921,1.919a1.213,1.213,0,0,1-1.694,0l-.064-.056c-.289-.266-.545-.685-.875-.753-.309-.064-.689.26-1.048.381a.371.371,0,0,0-.286.437,7.992,7.992,0,0,1-.005.933,1.188,1.188,0,0,1-1.152,1.188c-.932.034-1.868.035-2.8,0a1.21,1.21,0,0,1-1.157-1.232c-.014-.407.11-.9-.081-1.194-.179-.273-.684-.346-1.059-.467a.524.524,0,0,0-.421.079c-.242.192-.442.437-.67.649a1.228,1.228,0,0,1-1.757.018q-.953-.906-1.86-1.861a1.217,1.217,0,0,1,.012-1.787c.221-.239.463-.458.684-.7.057-.062.121-.194.093-.24a.444.444,0,0,0-.253-.155,1.145,1.145,0,0,0-.3-.006H90.7a3.4,3.4,0,0,1-.382-.006.628.628,0,0,1-.581-.662.6.6,0,0,1,.593-.6c.141-.012.283-.008.424-.008h9.8a1.8,1.8,0,0,1-.627-1.716c.01-.622,0-1.245,0-1.867a1.24,1.24,0,0,1,1.376-1.367c.831.076,1.291-.16,1.511-.99.085-.321.1-.5-.15-.711a4.878,4.878,0,0,1-.6-.6,1.222,1.222,0,0,1,.041-1.695q.911-.949,1.859-1.862a1.227,1.227,0,0,1,1.756-.02c.3.27.566.719.9.784s.751-.248,1.13-.4c.065-.026.127-.061.215-.1,0-.373,0-.754,0-1.135a1.229,1.229,0,0,1,1.264-1.3q1.294-.019,2.589,0a1.223,1.223,0,0,1,1.261,1.218.144.144,0,0,1,0,.042c-.234.969.246,1.452,1.132,1.638a.692.692,0,0,0,.432-.073,1.352,1.352,0,0,0,.334-.322,1.472,1.472,0,0,1,1.785-.592c.067-.395.072-.687-.328-.912-.368-.207-.414-.662-.265-1.146a.58.58,0,0,0-.025-.438c-.043-.064-.276-.044-.4,0a1,1,0,0,1-1.382-.6c-.16-.361-.317-.725-.453-1.1a.972.972,0,0,1,.517-1.313,1.844,1.844,0,0,0,.339-.31,1.729,1.729,0,0,0-.352-.337,1,1,0,0,1-.53-1.277q.222-.616.492-1.216a.97.97,0,0,1,1.293-.552,1.7,1.7,0,0,0,.491,0,1.925,1.925,0,0,0-.038-.455.981.981,0,0,1,.454-1.27.528.528,0,0,0,.211-.347c.028-.365.01-.734.01-1.136H83.02v.439q0,10.377,0,20.754A2.057,2.057,0,0,0,85.3,498.03c.679,0,1.358-.005,2.037,0,.457.005.742.263.738.642a.66.66,0,0,1-.751.632,22.024,22.024,0,0,1-2.96-.094,3.145,3.145,0,0,1-2.617-3.15q-.006-13.454,0-26.908a3.249,3.249,0,0,1,2.957-3.211c.225-.019.452-.025.678-.025q12.351,0,24.7,0a4.443,4.443,0,0,1,.466.012.587.587,0,0,1,.583.609.609.609,0,0,1-.537.657,2.153,2.153,0,0,1-.465.018c-8.234,0-16.468.024-24.7-.02a2.2,2.2,0,0,0-2.424,2.457c.063,1.143.015,2.291.018,3.437a.492.492,0,0,0,.035.11H116.81v-.432c0-1.146,0-2.292,0-3.438a1.988,1.988,0,0,0-2.126-2.114c-.368,0-.736.006-1.1,0a.683.683,0,0,1-.753-.64.653.653,0,0,1,.733-.647,11.006,11.006,0,0,1,2.106.13,3.094,3.094,0,0,1,2.411,2.966c.043,1.937.019,3.876.023,5.814,0,.169,0,.337,0,.55a1.153,1.153,0,0,1,1.158.839.306.306,0,0,0,.249.148.363.363,0,0,0,.238-.18c.441-.815.785-.944,1.64-.6.287.117.576.231.861.354a1,1,0,0,1,.6,1.346.6.6,0,0,0,.025.442c.039.062.274.043.4,0a1,1,0,0,1,1.381.6c.191.423.372.851.558,1.276v.509c-.267.231-.524.474-.8.688-.216.164-.2.359.022.521.276.2.523.437.782.658ZM101.263,496.9h1.558a.731.731,0,0,1,.74.569c.215.594.452,1.184.724,1.754a.773.773,0,0,1-.165,1.025c-.364.332-.715.678-1.025.973l1.84,1.836c.323-.333.678-.7,1.031-1.062a.728.728,0,0,1,.923-.141c.588.268,1.183.529,1.791.746a.726.726,0,0,1,.577.769c-.012.5,0,1.009,0,1.521H111.8c0-.526,0-1.02,0-1.513a.736.736,0,0,1,.58-.772,18.131,18.131,0,0,0,1.717-.706c.492-.229.7-.223,1.088.177.334.34.655.692.934.989l1.839-1.839c-.323-.315-.674-.663-1.032-1a.739.739,0,0,1-.144-.988,12.752,12.752,0,0,0,.683-1.59c.227-.65.312-.744.984-.747.46,0,.92,0,1.38,0v-2.532c-.525,0-1.029,0-1.533,0a.763.763,0,0,1-.785-.575c-.223-.607-.461-1.211-.741-1.793a.726.726,0,0,1,.147-.952c.368-.349.735-.7,1.066-1.016l-1.847-1.856c-.316.332-.661.684-.992,1.047a.76.76,0,0,1-1.023.15,14.781,14.781,0,0,0-1.714-.712.775.775,0,0,1-.608-.841c.013-.489,0-.978,0-1.461h-2.547c0,.5,0,.968,0,1.434,0,.564-.132.708-.645.892-.555.2-1.1.425-1.637.675-.5.236-.68.233-1.086-.179-.335-.339-.657-.69-.94-.988l-1.85,1.848c.326.31.681.653,1.044.988a.755.755,0,0,1,.15.992c-.265.559-.5,1.131-.72,1.711-.18.487-.334.63-.861.635-.476,0-.952,0-1.447,0Zm19.6-20.121c-.117.842-.634,1.011-1.329.885a.307.307,0,0,0-.127,0,.964.964,0,0,1-1.3-.779c-.006-.021-.044-.032-.081-.058l-.6.266a.969.969,0,0,1-.319,1.565.322.322,0,0,0-.089.091.975.975,0,0,1-1.474.365c-.017-.009-.051.013-.105.028l-.209.549c.866.444.865.444.862,1.4,0,.1.008.2.014.3.041.668-.012.756-.624,1.034-.075.034-.145.078-.244.133l.27.648c.721-.547,1.208-.216,1.625.368a.108.108,0,0,0,.031.029.971.971,0,0,1,.366,1.474c-.009.016.013.049.028.1l.566.227c.049-.107.086-.183.119-.259.256-.6.366-.662,1.025-.613a3.161,3.161,0,0,0,.675-.028.7.7,0,0,1,.814.452c.062.137.121.276.192.437l.617-.265c-.036-.1-.06-.181-.09-.257-.251-.632-.227-.714.276-1.164a3.547,3.547,0,0,0,.467-.49.706.706,0,0,1,.965-.241c.113.054.234.09.38.146l.258-.673c-.825-.118-.912-.622-.909-1.3,0-.71.011-1.313.905-1.447l-.268-.634c-.091.023-.147.031-.2.051-.743.277-.759.273-1.271-.293a.971.971,0,0,0-.178-.181,1.006,1.006,0,0,1-.408-1.506c.01-.017-.012-.052-.025-.1Z" transform="translate(-81.746 -465.918)" fill="#050d6f"/>
      <path id="Path_27997" data-name="Path 27997" d="M128.877,513.625a3.347,3.347,0,0,1-.1.335q-1.7,4.287-3.407,8.572c-.01.026-.025.051-.036.076a.649.649,0,1,1-1.2-.469q.938-2.382,1.888-4.758.75-1.887,1.5-3.773c.057-.144.088-.342.2-.412a1.258,1.258,0,0,1,.694-.258C128.716,512.962,128.886,513.223,128.877,513.625Z" transform="translate(-113.595 -501.303)" fill="#050d6f"/>
      <path id="Path_27998" data-name="Path 27998" d="M103.559,523.25c-.154.174-.284.443-.48.506a1.134,1.134,0,0,1-.692-.14c-.108-.046-.166-.219-.236-.341-.709-1.221-1.405-2.45-2.129-3.663a.907.907,0,0,1-.007-1.058c.744-1.2,1.461-2.418,2.193-3.626.267-.44.595-.563.941-.369s.431.588.171,1.023c-.624,1.043-1.245,2.087-1.889,3.117a.619.619,0,0,0-.017.754c.644,1.063,1.256,2.145,1.876,3.223C103.381,522.833,103.445,523,103.559,523.25Z" transform="translate(-95.37 -502.458)" fill="#050d6f"/>
      <path id="Path_27999" data-name="Path 27999" d="M154.128,523.824c-.68-.016-.94-.521-.659-1.023a23.242,23.242,0,0,1,1.478-2.518,1.714,1.714,0,0,0-.011-2.38,21.812,21.812,0,0,1-1.414-2.309c-.266-.446-.208-.82.148-1.029.34-.2.682-.08.945.353.748,1.231,1.485,2.468,2.235,3.7a.8.8,0,0,1,.007.909c-.759,1.29-1.494,2.594-2.262,3.878A1.839,1.839,0,0,1,154.128,523.824Z" transform="translate(-135.638 -502.457)" fill="#050d6f"/>
      <path id="Path_28000" data-name="Path 28000" d="M98.721,480.823a1.166,1.166,0,0,1-1.187-1.17,1.186,1.186,0,1,1,2.371,0A1.167,1.167,0,0,1,98.721,480.823Z" transform="translate(-93.628 -475.348)" fill="#050d6f"/>
      <path id="Path_28001" data-name="Path 28001" d="M113.476,480.824a1.172,1.172,0,0,1-1.184-1.174,1.186,1.186,0,1,1,2.371.006A1.164,1.164,0,0,1,113.476,480.824Z" transform="translate(-104.734 -475.348)" fill="#050d6f"/>
      <path id="Path_28002" data-name="Path 28002" d="M128.241,480.823a1.175,1.175,0,0,1-1.193-1.167,1.2,1.2,0,0,1,1.206-1.208,1.191,1.191,0,0,1,1.165,1.2A1.159,1.159,0,0,1,128.241,480.823Z" transform="translate(-115.839 -475.348)" fill="#050d6f"/>
      <path id="Path_28003" data-name="Path 28003" d="M160.628,559.08v-2.534c.5,0,.971,0,1.447,0,.527,0,.681-.148.861-.635.215-.58.455-1.152.72-1.711a.755.755,0,0,0-.15-.992c-.363-.335-.718-.679-1.044-.988l1.85-1.848c.283.3.606.649.94.988.406.411.582.415,1.086.179.534-.25,1.082-.476,1.637-.675.513-.184.643-.328.645-.892,0-.466,0-.932,0-1.434h2.547c0,.483.01.972,0,1.461a.775.775,0,0,0,.608.842,14.76,14.76,0,0,1,1.714.712.76.76,0,0,0,1.023-.15c.332-.364.677-.715.992-1.047l1.847,1.856c-.331.315-.7.666-1.066,1.016a.726.726,0,0,0-.147.952c.28.582.518,1.186.741,1.793a.763.763,0,0,0,.785.576c.5,0,1.009,0,1.533,0v2.532c-.46,0-.92,0-1.38,0-.672,0-.757.1-.984.747a12.752,12.752,0,0,1-.683,1.59.738.738,0,0,0,.144.988c.359.341.709.689,1.033,1l-1.839,1.839c-.279-.3-.6-.649-.934-.989-.393-.4-.6-.406-1.088-.176a18.2,18.2,0,0,1-1.717.706.736.736,0,0,0-.58.772c0,.493,0,.987,0,1.513h-2.548c0-.512-.009-1.017,0-1.521a.726.726,0,0,0-.577-.77c-.608-.218-1.2-.478-1.791-.746a.727.727,0,0,0-.923.141c-.353.366-.708.729-1.031,1.062l-1.84-1.836c.31-.3.661-.641,1.025-.974a.773.773,0,0,0,.165-1.025c-.272-.57-.508-1.16-.724-1.754a.731.731,0,0,0-.74-.569Zm9.256,2.509a3.783,3.783,0,0,0,3.626-2.617,1.989,1.989,0,0,0,.1-.537.565.565,0,0,0-.479-.607.581.581,0,0,0-.708.321,3.06,3.06,0,0,0-.152.437,2.5,2.5,0,0,1-4.806-1.339,2.44,2.44,0,0,1,2.918-1.87,4.877,4.877,0,0,1,1.2.58.687.687,0,0,0,.886-.087.658.658,0,0,0-.077-.913,2.334,2.334,0,0,0-.262-.215,3.789,3.789,0,1,0-2.25,6.847Z" transform="translate(-141.111 -528.096)" fill="#daddff"/>
      <path id="Path_28004" data-name="Path 28004" d="M222.7,509.824l.6.248c.013.051.035.086.025.1a1.007,1.007,0,0,0,.408,1.506.969.969,0,0,1,.178.181c.513.566.529.57,1.271.293.051-.019.107-.028.2-.05l.268.634c-.895.134-.9.737-.905,1.447,0,.679.084,1.183.909,1.3l-.258.673c-.146-.055-.267-.092-.38-.146a.706.706,0,0,0-.965.241,3.552,3.552,0,0,1-.467.49c-.5.45-.527.532-.276,1.164.03.076.054.154.09.257l-.617.265c-.07-.161-.129-.3-.192-.437a.7.7,0,0,0-.814-.452,3.153,3.153,0,0,1-.675.028c-.659-.049-.77.01-1.025.613-.033.077-.07.152-.119.259l-.566-.227c-.016-.053-.037-.087-.028-.1a.971.971,0,0,0-.366-1.474.109.109,0,0,1-.031-.029c-.416-.584-.9-.916-1.625-.369l-.27-.648c.1-.054.169-.1.244-.133.612-.278.665-.366.624-1.034-.006-.1-.014-.2-.014-.3,0-.952,0-.952-.863-1.4l.209-.549c.054-.015.089-.037.105-.028a.975.975,0,0,0,1.474-.365.319.319,0,0,1,.089-.091.969.969,0,0,0,.319-1.565l.6-.266c.038.026.075.038.081.058a.964.964,0,0,0,1.3.779.308.308,0,0,1,.127,0C222.071,510.835,222.587,510.666,222.7,509.824Zm.886,4.366a2.211,2.211,0,0,0-2.234-2.316,2.269,2.269,0,0,0-.047,4.537A2.206,2.206,0,0,0,223.59,514.19Z" transform="translate(-183.586 -498.961)" fill="#daddff"/>
      <path id="Path_28005" data-name="Path 28005" d="M186.554,578.262a3.786,3.786,0,1,1,2.25-6.847,2.3,2.3,0,0,1,.262.215.658.658,0,0,1,.077.913.687.687,0,0,1-.886.088,4.874,4.874,0,0,0-1.2-.579,2.44,2.44,0,0,0-2.918,1.87,2.5,2.5,0,0,0,4.806,1.339,3.063,3.063,0,0,1,.152-.437.581.581,0,0,1,.708-.321.565.565,0,0,1,.48.607,1.991,1.991,0,0,1-.1.537A3.783,3.783,0,0,1,186.554,578.262Z" transform="translate(-157.78 -544.768)" fill="#050d6f"/>
      <path id="Path_28006" data-name="Path 28006" d="M229.694,520.428a2.205,2.205,0,0,1-2.281,2.221,2.269,2.269,0,0,1,.047-4.537A2.211,2.211,0,0,1,229.694,520.428Zm-2.2-1.025a.982.982,0,1,0-.08,1.962.982.982,0,0,0,.08-1.962Z" transform="translate(-189.69 -505.198)" fill="#050d6f"/>
    </g>
  </g>
</svg>
